<svg width="397" height="185" viewBox="0 0 397 185" fill="none" xmlns="http://www.w3.org/2000/svg">
<g clip-path="url(#clip0_1739_5479)">
<path d="M140.687 27.4851C94.8206 52.5546 57.1898 93.0616 37.8401 141.843C37.3202 143.143 36.6991 144.757 36.1611 146.204L45.2529 166.415C46.708 161.855 48.4664 156.32 49.203 154.118C53.3047 141.172 58.8255 128.713 65.4981 116.86C83.3349 85.2382 109.531 58.479 140.362 39.2148C141.781 35.359 141.89 31.2722 140.687 27.4814V27.4851Z" fill="#0372B2"/>
<path d="M372.223 56.3491C359.951 39.6878 343.681 26.1096 325.089 16.9901C305.303 7.23523 283.494 1.74043 261.451 0.559876C259.58 0.458789 255.688 0.281887 253.829 0.17719C221.639 -1.16943 189.71 5.29291 160.344 17.9143C160.286 21.0228 161.088 24.1168 162.731 26.9544C191.01 13.499 222.087 6.06912 253.583 6.37238C287.441 6.04384 322.262 15.0478 349.245 36.1244C373.292 54.9772 389.41 80.5161 397 109.997C392.479 90.0255 384.518 72.8118 372.223 56.3491Z" fill="#0372B2"/>
<path d="M138.459 43.0489L128.927 59.6994L129.794 60.2481L140.853 44.5399C144.966 38.0776 152.057 34.8247 159.362 36.0558C166.414 37.24 171.855 42.4135 173.555 49.5618L173.642 49.9264L174.671 49.6845L174.585 49.3199C172.884 42.0561 169.591 35.5143 164.796 29.8751C164.002 28.94 163.316 27.9653 162.734 26.958C155.054 30.6116 147.58 34.7128 140.362 39.2256C139.878 40.5362 139.247 41.8214 138.459 43.0561V43.0489Z" fill="#043F61"/>
<path d="M163.276 8.48109C163.294 8.45582 163.312 8.43055 163.341 8.38361L163.568 8.0623L162.225 7.20667L161.882 7.01172L161.687 7.35469C161.673 7.38357 161.655 7.40885 161.637 7.43773C157.235 14.3514 149.562 17.2973 141.615 15.1239C134.473 13.1708 127.151 12.9578 119.85 14.4958L119.485 14.5716L119.702 15.6077L120.067 15.5319C127.263 14.0481 134.253 16.7811 138.315 22.6658C139.362 24.1821 140.149 25.8031 140.68 27.4818C147.082 23.9835 153.646 20.7848 160.34 17.9075C160.398 14.6979 161.369 11.4668 163.272 8.47748L163.276 8.48109Z" fill="#043F61"/>
<path d="M102.815 120.239H111.982V175.927H140.814V184.271H102.815V120.243V120.239Z" fill="#043F61"/>
<path d="M167.125 120.146H220.617V128.305H198.292V184.267H189.078V128.305H167.121V120.146H167.125Z" fill="#043F61"/>
<path d="M262.422 120.239H298.727V128.398H271.589V147.923H297.81V156.125H271.589V176.018H299.598V184.177H262.422V120.239Z" fill="#043F61"/>
<path d="M30.5935 134.063L30.6441 133.944L30.5935 134.063Z" fill="#043F61"/>
<path d="M30.644 133.944L53.2795 184.267H62.6601L33.9478 119.871H27.5063L0 184.267H9.42031L17.4216 165.292H17.4252L30.5935 134.063L30.644 133.944Z" fill="#043F61"/>
<path d="M374.953 176.567C367.526 176.567 361.431 174.307 356.665 169.783C351.899 165.263 349.516 159.487 349.516 152.458C349.516 145.429 351.939 139.692 356.781 135.064C361.622 130.435 367.714 128.121 375.047 128.121C382.38 128.121 389.515 130.258 397.004 134.536V124.684C388.782 121.171 381.312 119.413 374.588 119.413C364.84 119.413 356.643 122.59 349.996 128.948C343.349 135.302 340.027 143.14 340.027 152.461C340.027 158.328 341.478 163.783 344.381 168.823C347.284 173.863 351.227 177.823 356.206 180.693C361.186 183.567 367.255 185 374.404 185C382.908 185 390.439 183.282 397.004 179.859V169.845C389.826 174.321 382.478 176.567 374.957 176.567H374.953Z" fill="#043F61"/>
</g>
<defs>
<clipPath id="clip0_1739_5479">
<rect width="397" height="185" fill="white"/>
</clipPath>
</defs>
</svg>
