<?xml version="1.0" encoding="UTF-8"?>
<svg id="Marchio" xmlns="http://www.w3.org/2000/svg" viewBox="0 0 270.4 85.2">
  <defs>
    <style>
      .cls-1 {
        fill: #0071ce;
      }

      .cls-2 {
        isolation: isolate;
      }
    </style>
  </defs>
  <g class="cls-2">
    <path class="cls-1" d="M41.6,0v49h-10.9L10.8,17.2v31.8H0V0h10.9l19.8,32V0h10.9Z"/>
    <path class="cls-1" d="M66,49.5c-3.6,0-6.7-.8-9.4-2.3-2.7-1.5-4.7-3.7-6.2-6.4-1.5-2.8-2.2-6-2.2-9.7s.7-6.4,2.2-9.1c1.4-2.7,3.5-4.7,6.1-6.3,2.6-1.5,5.6-2.3,8.9-2.3s6.5.7,9.1,2.1c2.6,1.4,4.6,3.4,6,6.1,1.4,2.6,2.2,5.6,2.2,9.1s0,1.1,0,1.8c0,.6-.1,1.3-.2,2h-23.2c.2,1.3.7,2.3,1.3,3.3.7.9,1.5,1.6,2.5,2.1s2.2.7,3.5.7,2.8-.3,3.9-.9c1.2-.6,2-1.5,2.6-2.6l9.2,2.5c-1.4,3.1-3.5,5.5-6.3,7.2s-6.1,2.6-9.8,2.6l-.2.1h0ZM71.6,27.9c0-1.2-.3-2.2-.9-3.1-.6-.9-1.3-1.6-2.2-2.1-.9-.5-1.9-.7-2.9-.7-1.1,0-2,.3-2.9.8s-1.6,1.2-2.2,2c-.6.9-1,1.9-1.1,3h12.2v.1Z"/>
    <path class="cls-1" d="M84.7,14h12l6.6,10.2,6.5-10.2h12l-12.3,17.4,12.3,17.6h-12l-6.5-10.2-6.6,10.2h-12l12.4-17.6-12.4-17.4h0Z"/>
    <path class="cls-1" d="M130,14V4.2h10.4v9.8h7.2v9h-7.2v12.6c0,1.6.4,2.7,1.1,3.4.7.7,1.6,1,2.8,1,1.1,0,2.2,0,3.4-.2v8.9c-2.4.4-4.6.5-6.8.4s-4-.7-5.6-1.7-2.9-2.4-3.8-4.3c-.9-1.9-1.4-4.4-1.4-7.4v-12.6h-4.9v-9h4.9l-.1-.1h0Z"/>
  </g>
  <g class="cls-2">
    <path class="cls-1" d="M.1,66.5h1.7v14.7H.1v-14.7Z"/>
    <path class="cls-1" d="M5.2,70.7h1.4v1.5c.4-.5.9-.9,1.4-1.2.5-.3,1.2-.4,1.9-.4s1.5.2,2.1.5,1.1.9,1.4,1.5c.3.7.5,1.5.5,2.6v6h-1.6v-5.9c0-1.1-.2-1.9-.7-2.5s-1.1-.9-2-.9-1.6.3-2.1.9-.8,1.5-.8,2.7v5.6h-1.6v-10.5s.1.1.1.1Z"/>
    <path class="cls-1" d="M25.1,70.7h1.4v8.6c0,1.3-.3,2.4-.9,3.3-.6.9-1.4,1.6-2.5,2.1s-2.4.7-4,.7l-.3-1.4c2,0,3.5-.4,4.5-1.2,1-.8,1.5-1.9,1.5-3.5v-.2h.2c-.3.7-.8,1.2-1.4,1.6-.6.4-1.5.7-2.5.7s-1.8-.2-2.5-.7c-.7-.4-1.3-1.1-1.7-1.9s-.6-1.8-.6-2.9.2-2,.6-2.8c.4-.8,1-1.4,1.7-1.9.7-.4,1.6-.7,2.5-.7s1.2,0,1.7.3c.5.2.9.4,1.3.8.4.3.6.7.9,1.1v-2h.1ZM18,76c0,1.2.3,2.2.9,2.9.6.7,1.5,1.1,2.5,1.1s1.2-.2,1.7-.5.9-.8,1.2-1.3.5-1.3.5-2.1-.2-1.5-.5-2.1-.7-1-1.2-1.3-1.1-.5-1.7-.5c-1,0-1.9.4-2.5,1.1s-.9,1.7-.9,2.9v-.2Z"/>
    <path class="cls-1" d="M34.1,81.4c-1,0-1.9-.2-2.6-.7-.8-.5-1.4-1.1-1.8-2s-.7-1.8-.7-2.8.2-1.9.7-2.7,1-1.4,1.8-1.9,1.6-.7,2.6-.7,1.8.2,2.6.6c.7.4,1.3,1,1.8,1.7.4.7.6,1.6.6,2.5v1h-8.1c0,.7.2,1.2.5,1.7s.7.9,1.2,1.2c.5.3,1,.4,1.6.4s1.5-.2,2.1-.5,1-.7,1.2-1.3l1.4.5c-.4.9-1,1.6-1.8,2-.8.5-1.7.7-2.8.7l-.3.3h0ZM37.3,75.2c0-.6-.1-1.1-.4-1.6s-.7-.8-1.1-1.1-1.1-.4-1.7-.4-1.1.1-1.5.4c-.5.3-.8.6-1.1,1.1-.3.5-.5,1-.5,1.6h6.4-.1Z"/>
    <path class="cls-1" d="M49.6,70.7h1.4v8.6c0,1.3-.3,2.4-.9,3.3s-1.4,1.6-2.5,2.1-2.4.7-4,.7l-.3-1.4c2,0,3.5-.4,4.5-1.2,1-.8,1.5-1.9,1.5-3.5v-.2h.2c-.3.7-.8,1.2-1.4,1.6s-1.5.7-2.5.7-1.8-.2-2.5-.7c-.7-.4-1.3-1.1-1.7-1.9-.4-.8-.6-1.8-.6-2.9s.2-2,.6-2.8,1-1.4,1.7-1.9,1.6-.7,2.5-.7,1.2,0,1.7.3c.5.2.9.4,1.3.8.3.3.6.7.9,1.1v-2h.1ZM42.6,76c0,1.2.3,2.2.9,2.9.6.7,1.5,1.1,2.5,1.1s1.2-.2,1.7-.5.9-.8,1.2-1.3c.3-.6.5-1.3.5-2.1s-.2-1.5-.5-2.1-.7-1-1.2-1.3-1.1-.5-1.7-.5c-1,0-1.9.4-2.5,1.1s-.9,1.7-.9,2.9v-.2Z"/>
    <path class="cls-1" d="M54.3,70.7h1.4v1.5c.4-.5.9-.9,1.4-1.2.5-.3,1.2-.4,1.9-.4s1.5.2,2.1.5,1.1.9,1.4,1.5c.3.7.5,1.5.5,2.6v6h-1.6v-5.9c0-1.1-.2-1.9-.7-2.5s-1.1-.9-2-.9-1.6.3-2.1.9-.8,1.5-.8,2.7v5.6h-1.6v-10.5s.1.1.1.1Z"/>
    <path class="cls-1" d="M70.5,81.4c-1,0-1.9-.2-2.6-.7-.8-.5-1.4-1.1-1.8-2s-.7-1.8-.7-2.8.2-1.9.7-2.7,1-1.4,1.8-1.9,1.6-.7,2.6-.7,1.8.2,2.6.6c.7.4,1.3,1,1.8,1.7.4.7.6,1.6.6,2.5v1h-8.1c0,.7.2,1.2.5,1.7s.7.9,1.2,1.2c.5.3,1,.4,1.6.4s1.5-.2,2.1-.5,1-.7,1.2-1.3l1.4.5c-.4.9-1,1.6-1.8,2-.8.5-1.7.7-2.8.7l-.3.3h0ZM73.7,75.2c0-.6-.1-1.1-.4-1.6s-.7-.8-1.1-1.1-1.1-.4-1.7-.4-1.1.1-1.5.4c-.5.3-.8.6-1.1,1.1-.3.5-.5,1-.5,1.6h6.4-.1Z"/>
    <path class="cls-1" d="M78,70.7h1.4v1.5c.4-.4.7-.7,1.1-1s.8-.5,1.3-.6,1-.1,1.5,0v1.6c-.6-.1-1.1-.1-1.6,0s-.9.3-1.2.6-.6.7-.8,1.2c-.2.5-.3,1-.3,1.6v5.5h-1.6v-10.5s.2.1.2.1Z"/>
    <path class="cls-1" d="M86.6,68.6c-.3,0-.6-.1-.8-.3s-.3-.5-.3-.8.1-.6.3-.8.5-.3.8-.3.5.1.8.3.3.5.3.8-.1.6-.3.8-.5.3-.8.3ZM85.8,70.7h1.6v10.5h-1.6v-10.5Z"/>
    <path class="cls-1" d="M97.5,81.2v-1.9c-.4.6-.9,1.1-1.4,1.5-.6.4-1.3.5-2.2.5s-1.4-.1-1.9-.4c-.5-.2-.9-.6-1.2-1-.3-.4-.4-1-.4-1.6,0-.9.3-1.6,1-2.2s1.6-.9,2.9-1l3.2-.4v-.8c0-.6-.2-1.1-.7-1.4-.4-.4-1-.5-1.8-.5s-1.3.2-1.8.5-.8.8-1,1.4l-1.4-.5c.3-.9.8-1.6,1.5-2.2.7-.5,1.7-.8,2.7-.8s2.2.3,2.9,1c.7.6,1,1.5,1,2.6v7.1h-1.4v.1ZM97.4,76.2l-3.3.4c-.7,0-1.2.3-1.6.6s-.5.7-.5,1.2.2.9.5,1.2c.4.3.9.4,1.5.4s1.4-.2,1.9-.5.8-.7,1.1-1.2c.2-.5.3-1.1.3-1.7v-.3l.1-.1h0Z"/>
    <path class="cls-1" d="M116,72.9h-.2v-6.7h1.6v15.1h-1.4v-2c-.4.6-.9,1.1-1.5,1.5s-1.4.6-2.4.6-1.8-.2-2.5-.7c-.7-.4-1.3-1.1-1.7-1.9s-.6-1.8-.6-2.9.2-2,.6-2.8c.4-.8,1-1.4,1.7-1.9s1.6-.7,2.5-.7,1.8.2,2.5.7c.7.4,1.1,1,1.5,1.6l-.1.1h0ZM109,76c0,1.2.3,2.2.9,2.9.6.7,1.5,1.1,2.5,1.1s1.2-.2,1.8-.5c.5-.3.9-.8,1.2-1.3.3-.6.5-1.3.5-2.1s-.2-1.5-.5-2.1-.7-1-1.2-1.3-1.1-.5-1.8-.5c-1,0-1.9.4-2.5,1.1s-.9,1.7-.9,2.9v-.2Z"/>
    <path class="cls-1" d="M125,81.4c-1,0-1.9-.2-2.6-.7-.8-.5-1.4-1.1-1.8-2-.4-.8-.7-1.8-.7-2.8s.2-1.9.7-2.7c.4-.8,1-1.4,1.8-1.9s1.6-.7,2.6-.7,1.8.2,2.6.6,1.3,1,1.8,1.7c.4.7.6,1.6.6,2.5v1h-8.1c0,.7.2,1.2.5,1.7s.7.9,1.2,1.2c.5.3,1,.4,1.6.4s1.5-.2,2.1-.5,1-.7,1.2-1.3l1.4.5c-.4.9-1,1.6-1.8,2-.8.5-1.7.7-2.8.7,0,0-.3.3-.3.3ZM128.2,75.2c0-.6-.1-1.1-.4-1.6-.3-.5-.7-.8-1.1-1.1-.5-.3-1.1-.4-1.7-.4s-1.1.1-1.5.4-.8.6-1.1,1.1-.5,1-.5,1.6h6.4-.1,0Z"/>
    <path class="cls-1" d="M133.6,68.6c-.3,0-.6-.1-.8-.3s-.3-.5-.3-.8.1-.6.3-.8.5-.3.8-.3.5.1.8.3.3.5.3.8-.1.6-.3.8-.5.3-.8.3ZM132.8,70.7h1.6v10.5h-1.6v-10.5Z"/>
    <path class="cls-1" d="M144.8,77.5c0,.4.3.8.5,1.1.3.4.7.7,1.1.9.5.2,1.1.4,1.9.4,1.1,0,1.9-.3,2.4-.8s.8-1.1.8-1.8-.1-1-.4-1.3c-.3-.3-.7-.6-1.2-.9-.5-.2-1.1-.4-1.7-.6-.6-.2-1.1-.3-1.7-.5-.6-.2-1.1-.4-1.5-.7-.4-.3-.8-.7-1.1-1.1s-.4-1-.4-1.7.2-1.5.6-2.2c.4-.6.9-1.1,1.7-1.4.7-.3,1.5-.5,2.5-.5s1.5.1,2.2.4c.6.2,1.1.6,1.5,1s.7.9.9,1.5l-1.5.6c0-.3-.3-.6-.6-.9s-.6-.5-1.1-.7c-.4-.2-1-.3-1.5-.3s-1.1,0-1.5.3-.8.5-1.1.8c-.3.4-.4.8-.4,1.3s.2,1,.5,1.3.7.6,1.3.8,1.1.4,1.7.6c.6.2,1.1.4,1.7.6.5.2,1,.5,1.4.8s.8.7,1,1.2.4,1,.4,1.7-.2,1.4-.5,2.1c-.4.6-.9,1.1-1.6,1.5-.7.4-1.6.6-2.7.6s-1.7-.1-2.4-.4-1.3-.7-1.7-1.2-.8-1-.9-1.7l1.5-.6-.1-.2h0Z"/>
    <path class="cls-1" d="M156.9,68.6c-.3,0-.6-.1-.8-.3s-.3-.5-.3-.8.1-.6.3-.8.5-.3.8-.3.5.1.8.3c.2.2.3.5.3.8s-.1.6-.3.8c-.2.2-.5.3-.8.3ZM156.1,70.7h1.6v10.5h-1.6v-10.5Z"/>
    <path class="cls-1" d="M162.1,78c0,.4.2.8.5,1,.2.3.5.5.9.6s.8.2,1.2.2c.7,0,1.3-.1,1.7-.4s.6-.6.6-1.1-.1-.7-.3-.9c-.2-.2-.5-.4-.9-.6-.4-.1-.8-.3-1.3-.4-.4,0-.8-.2-1.2-.3s-.8-.3-1.2-.5-.7-.5-.9-.8-.4-.8-.4-1.3.2-1.1.5-1.6.8-.8,1.4-1.1,1.2-.4,2-.4,1.6.2,2.3.6,1.2,1,1.4,1.8l-1.5.5c0-.4-.3-.6-.5-.8-.3-.2-.5-.3-.9-.4-.3,0-.6-.1-.9-.1-.6,0-1.1.1-1.5.4-.4.2-.6.6-.6,1.1s0,.5.2.7.3.3.5.4.5.2.8.3c.3,0,.6.2,1,.3.4,0,.8.2,1.2.4.4.1.8.3,1.2.6.4.2.7.5.9.9s.3.8.3,1.3-.2,1.2-.5,1.6-.8.8-1.4,1.1-1.3.4-2.1.4-2-.2-2.7-.7-1.2-1.2-1.4-2.1l1.5-.5.1-.2h0Z"/>
    <path class="cls-1" d="M171.9,70.7v-2.9h1.6v2.9h2.8v1.5h-2.8v5.6c0,.6.1,1.1.4,1.4.3.3.6.5,1.1.5h1.3v1.4c-.5.1-1.1.2-1.6.1-.5,0-1-.2-1.4-.5s-.7-.6-1-1.1c-.2-.5-.4-1.1-.4-1.8v-5.6h-1.6v-1.5h1.6,0Z"/>
    <path class="cls-1" d="M183,81.4c-1,0-1.9-.2-2.6-.7-.8-.5-1.4-1.1-1.8-2s-.7-1.8-.7-2.8.2-1.9.7-2.7,1-1.4,1.8-1.9,1.6-.7,2.6-.7,1.8.2,2.6.6c.7.4,1.3,1,1.8,1.7.4.7.6,1.6.6,2.5v1h-8.1c0,.7.2,1.2.5,1.7s.7.9,1.2,1.2c.5.3,1,.4,1.6.4s1.5-.2,2.1-.5,1-.7,1.2-1.3l1.4.5c-.4.9-1,1.6-1.8,2-.8.5-1.7.7-2.8.7,0,0-.3.3-.3.3ZM186.1,75.2c0-.6-.1-1.1-.4-1.6-.3-.5-.7-.8-1.1-1.1s-1.1-.4-1.7-.4-1.1.1-1.5.4c-.5.3-.8.6-1.1,1.1s-.5,1-.5,1.6h6.4-.1,0Z"/>
    <path class="cls-1" d="M190.5,70.7h1.4v1.5c.4-.5.8-.9,1.4-1.2.5-.3,1.2-.5,1.9-.5s1.4.2,2,.5c.6.4,1.1.9,1.4,1.6.3-.7.8-1.2,1.5-1.6.7-.3,1.4-.5,2.2-.5s1.5.2,2.1.5,1.1.9,1.4,1.5c.3.7.5,1.5.5,2.6v6h-1.6v-5.9c0-1.1-.2-1.9-.7-2.5s-1.1-.9-2-.9-1.6.3-2.1.9-.8,1.5-.8,2.7v5.6h-1.6v-5.9c0-1.1-.2-1.9-.7-2.5-.4-.6-1.1-.9-2-.9s-1.6.3-2.1.9-.7,1.5-.7,2.7v5.6h-1.6v-10.5l.1.3h0Z"/>
    <path class="cls-1" d="M210.4,68.6c-.3,0-.6-.1-.8-.3s-.3-.5-.3-.8.1-.6.3-.8.5-.3.8-.3.5.1.8.3c.2.2.3.5.3.8s-.1.6-.3.8c-.2.2-.5.3-.8.3ZM209.6,70.7h1.6v10.5h-1.6v-10.5Z"/>
    <path class="cls-1" d="M221.6,77.5c0,.4.3.8.5,1.1.3.4.7.7,1.1.9.5.2,1.1.4,1.9.4,1.1,0,1.9-.3,2.4-.8s.8-1.1.8-1.8-.1-1-.4-1.3-.7-.6-1.2-.9c-.5-.2-1.1-.4-1.7-.6s-1.1-.3-1.7-.5-1.1-.4-1.5-.7c-.4-.3-.8-.7-1.1-1.1-.3-.5-.4-1-.4-1.7s.2-1.5.6-2.2c.4-.6.9-1.1,1.7-1.4s1.5-.5,2.5-.5,1.5.1,2.2.4c.6.2,1.1.6,1.5,1s.7.9.9,1.5l-1.5.6c0-.3-.3-.6-.6-.9-.3-.3-.6-.5-1.1-.7s-1-.3-1.5-.3-1.1,0-1.5.3-.8.5-1.1.8c-.3.4-.4.8-.4,1.3s.2,1,.5,1.3.7.6,1.3.8c.5.2,1.1.4,1.7.6s1.1.4,1.7.6,1,.5,1.4.8.8.7,1,1.2.4,1,.4,1.7-.2,1.4-.5,2.1c-.3.6-.9,1.1-1.6,1.5s-1.6.6-2.7.6-1.7-.1-2.4-.4c-.7-.3-1.3-.7-1.7-1.2-.4-.5-.8-1-.9-1.7l1.5-.6-.1-.2h0Z"/>
    <path class="cls-1" d="M233.5,81.3c-.3,0-.6-.1-.8-.3-.2-.2-.3-.5-.3-.8s.1-.6.3-.8c.2-.2.5-.3.8-.3s.6.1.8.3c.2.2.3.5.3.8s-.1.6-.3.8-.5.3-.8.3Z"/>
    <path class="cls-1" d="M239,79.1h.2v6.3h-1.6v-14.7h1.4v2c.4-.6.9-1.1,1.5-1.5s1.4-.6,2.4-.6,1.7.2,2.5.7c.7.4,1.3,1.1,1.7,1.9.4.8.6,1.8.6,2.9s-.2,2-.6,2.8-1,1.4-1.7,1.9c-.7.4-1.6.7-2.5.7s-1.8-.2-2.5-.7c-.7-.4-1.1-1-1.4-1.6v-.1h0ZM246,76c0-1.2-.3-2.2-.9-2.9s-1.5-1.1-2.5-1.1-1.2.2-1.8.5c-.5.3-.9.8-1.2,1.3s-.4,1.3-.4,2.1.1,1.5.4,2.1.7,1,1.2,1.4c.5.3,1.1.5,1.8.5,1,0,1.9-.4,2.5-1.1s.9-1.7.9-2.9v.1Z"/>
    <path class="cls-1" d="M250.5,81.3c-.3,0-.6-.1-.8-.3-.2-.2-.3-.5-.3-.8s.1-.6.3-.8c.2-.2.5-.3.8-.3s.6.1.8.3c.2.2.3.5.3.8s-.1.6-.3.8-.5.3-.8.3Z"/>
    <path class="cls-1" d="M260.4,68h-.7l-4.9,13.2h-1.7l5.4-14.7h3l5.4,14.7h-1.7l-4.8-13.2h0ZM255.8,75.9h8.6v1.5h-8.6v-1.5Z"/>
    <path class="cls-1" d="M269.6,81.3c-.3,0-.6-.1-.8-.3-.2-.2-.3-.5-.3-.8s.1-.6.3-.8c.2-.2.5-.3.8-.3s.6.1.8.3c.2.2.3.5.3.8s-.1.6-.3.8-.5.3-.8.3Z"/>
  </g>
</svg>