<?xml version="1.0" encoding="UTF-8"?>
<svg id="Layer_1" data-name="Layer 1" xmlns="http://www.w3.org/2000/svg" viewBox="0 0 283.75 88.21">
  <defs>
    <style>
      .cls-1 {
        fill: #eb2d2e;
      }

      .cls-2 {
        fill: #46555f;
      }
    </style>
  </defs>
  <path class="cls-2" d="M193.99,63.71c-8.68,0-16.79-3.3-22.82-9.28-6.02-5.97-9.33-13.95-9.33-22.49s3.31-16.52,9.33-22.49C177.21,3.47,185.31.17,193.99.17c9.36,0,16.64,2.98,22.91,9.37l.15.15-8.45,8.36-.15-.17c-3.86-4.52-8.46-6.63-14.46-6.63-11.7,0-19.56,8.32-19.56,20.7s7.86,20.7,19.56,20.7c5.84,0,10.71-2.22,14.46-6.59l.15-.17,8.44,8.31-.13.15c-5.21,5.96-13.56,9.38-22.92,9.38Z"/>
  <path class="cls-1" d="M281.78,79.94c0,4.48-13.55,8.11-30.31,8.11s-30.28-3.63-30.28-8.11,13.54-7.85,30.28-7.85,30.31,3.38,30.31,7.85"/>
  <path class="cls-2" d="M86.35,63.71c-15.82,0-28.97-12.21-30.59-28.41-.11-1.11-.17-2.24-.17-3.36,0-8.53,3.17-16.52,8.92-22.49C70.29,3.47,78.04.17,86.35.17c10.87,0,20.7,5.67,26.29,15.16,2.89,4.86,3.92,11.38,3.92,15.86,0,1.36-.07,2.74-.2,4.11l-.02.19h-48.24c.9,10.48,8.5,17.5,18.98,17.5,6.19,0,11.3-2.41,15.63-7.37l.14-.16,8.79,7.85-.13.16c-5.64,6.61-14.57,10.25-25.15,10.25ZM68.51,25.74h35.37c-.38-2.75-1.11-4.95-2.3-6.89-3.34-5.33-8.75-8.26-15.24-8.26-8.72,0-15.48,5.35-17.64,13.96-.11.48-.17.9-.2,1.19Z"/>
  <path class="cls-2" d="M25.17,63.74c-4.55,0-9.05-.9-13.38-2.66-4.35-1.77-8.02-4.52-10.89-8.15l-.64-.83-.12-.16,9.09-7.77.75,1.1c1.54,2.28,3.71,4.21,6.44,5.76,2.72,1.54,5.75,2.33,9,2.33,1.47,0,2.9-.14,4.23-.43,1.33-.28,2.55-.75,3.63-1.39,1.06-.63,1.92-1.47,2.55-2.49.62-1.01.94-2.33.94-3.91,0-2.61-1.21-4.49-3.71-5.76-2.59-1.31-6.45-2.57-11.5-3.72-2.02-.51-4.08-1.12-6.12-1.83-2.08-.72-3.99-1.73-5.69-3.01-1.71-1.28-3.12-2.91-4.19-4.83-1.07-1.93-1.62-4.34-1.62-7.16,0-3.24.67-6.07,2-8.42,1.32-2.34,3.07-4.29,5.2-5.78,2.12-1.48,4.57-2.6,7.28-3.32,2.7-.72,5.52-1.08,8.38-1.08,4.3,0,8.5.85,12.51,2.54,4.03,1.7,7.19,4.19,9.4,7.42l.22.32-8.82,7.46-.26-.42c-1.29-2.1-3.14-3.84-5.49-5.18-2.35-1.34-5.02-2.01-7.94-2.01-1.3,0-2.62.14-3.92.43-1.29.28-2.45.73-3.44,1.33-.98.59-1.78,1.35-2.37,2.25-.58.89-.87,2.01-.87,3.34,0,2.33,1.06,4.08,3.16,5.2,2.21,1.19,5.59,2.29,10.04,3.28,2.85.67,5.53,1.48,7.95,2.4,2.45.93,4.62,2.11,6.44,3.51,1.84,1.41,3.29,3.12,4.32,5.09,1.03,1.98,1.55,4.32,1.55,6.96,0,3.56-.69,6.63-2.06,9.1-1.36,2.47-3.2,4.52-5.46,6.1-2.25,1.57-4.85,2.71-7.73,3.39-2.86.67-5.85,1.01-8.87,1.01Z"/>
  <path class="cls-2" d="M251.45,63.71c-8.68,0-16.79-3.3-22.82-9.28-6.02-5.97-9.33-13.95-9.33-22.49s3.31-16.52,9.33-22.49C234.66,3.47,242.77.17,251.45.17s16.79,3.3,22.82,9.29c6.02,5.97,9.33,13.96,9.33,22.49s-3.31,16.52-9.33,22.49c-6.04,5.98-14.14,9.28-22.82,9.28ZM251.45,11.25c-11.7,0-19.56,8.32-19.56,20.7s7.86,20.7,19.56,20.7,19.56-8.32,19.56-20.7-7.86-20.7-19.56-20.7Z"/>
  <path class="cls-2" d="M162.46,1.69c-2.25-1.05-5.15-1.52-6.88-1.52-7.14,0-14.69,4.81-17.88,10.99h-.16V1.69h-11.83v60.51h11.83v-28.93c0-13.18,6.21-20.74,17.03-20.74,1.64,0,3.24.39,5.01.86l.21.06,2.83-11.68-.16-.07Z"/>
</svg>