<?xml version="1.0" encoding="UTF-8"?>
<svg id="Layer_2" data-name="Layer 2" xmlns="http://www.w3.org/2000/svg" viewBox="0 0 1165.17 144.5">
  <defs>
    <style>
      .cls-1 {
        fill: #9dceed;
        stroke-width: 0px;
      }
    </style>
  </defs>
  <g id="Layer_1-2" data-name="Layer 1">
    <g>
      <path class="cls-1" d="M134.98,107.01c-11.89,0-19.57-6.49-19.57-16.53,0-7.71,4.42-13.59,12.79-17.01l1.26-.52-.87-1.05c-3.01-3.62-4.13-6.42-4.13-10.3,0-7.28,5.98-12.17,14.88-12.17,4.63,0,8.38,1.4,10.83,4.04,1.97,2.12,2.97,4.88,2.94,8.03h-7.43c-.11-1.85-.72-3.4-1.8-4.51-1.2-1.25-2.91-1.91-4.95-1.91-4.11,0-7.09,2.74-7.09,6.51,0,3.55,2.03,6.39,6.03,10.71l16.07,15.99,6.21-10.24h7.81l-6.53,11.17c-.49.86-1.03,1.72-1.54,2.54l-.92,1.49,12.75,12.68h-9.42l-7.49-7.5-.71.71c-5.35,5.36-11.43,7.86-19.12,7.86ZM133.13,77.55c-6.86,2.71-10.34,6.95-10.34,12.61,0,6.3,5.13,10.87,12.19,10.87,5.47,0,10.17-2.18,14.39-6.65l.66-.71-16.29-16.37-.61.24Z"/>
      <path class="cls-1" d="M260.47,106.47l-6.54-18.1-20.64-13.96c4.39,1.17,10.47,2.88,15.51,4.32l1.86.53-7.18-20.2-11.13-33.29-17.07,47.65-3.4,11.68-7.73,21.38h-13.91L224.95,11.05h14.88l18.67,51.59.43,1.19,3.22,8.88,12.21,33.76h-13.9Z"/>
      <path class="cls-1" d="M48.19,107.69C20.71,107.69,0,86.68,0,58.82S20.71,9.81,48.19,9.81c20.64,0,37.16,10.82,44.2,28.93l.2.52h-15.68l-.11-.22c-5.16-10.97-15.59-17.26-28.62-17.26-20.44,0-34.72,15.23-34.72,37.03s14.28,36.92,34.72,36.92c17.8,0,30.1-7.08,33.77-19.42l.21-.7-18.51-12.63c9.47,2.52,27.4,7.74,31.31,8.89-.48,3.72-1.37,7.27-2.64,10.58-4.42,11.51-15.66,25.23-44.13,25.23Z"/>
      <polygon class="cls-1" points="317.49 106.26 317.49 10.4 369.49 10.4 369.49 21.48 331.52 21.48 331.52 52.16 365.26 52.16 365.26 63.24 331.52 63.24 331.52 95.18 369.49 95.18 369.49 106.26 317.49 106.26"/>
      <path class="cls-1" d="M449.21,106.26v-42.31c0-14.09-7.63-22.5-20.4-22.5s-20.54,8.41-20.54,22.5v42.31h-14.03V30.79h14.03v10.64l1.77-2.16c5.02-6.11,13.35-9.76,22.29-9.76,18.98,0,30.77,12.28,30.77,32.04v44.7h-13.88Z"/>
      <path class="cls-1" d="M523.76,144.5c-20.13,0-34.44-9.94-36.82-25.42h14.02c2.85,8.23,11.7,13.5,22.8,13.5,13.98,0,22.66-9.22,22.66-24.06v-15.95l-1.8,2.42c-5.85,7.84-15.59,12.53-26.05,12.53-20.6,0-35.56-16.55-35.56-39.35s14.95-38.65,35.56-38.65c10.83,0,20.56,4.52,26.05,12.1l1.81,2.5v-13.33h14.17v77.73c0,21.85-14.46,35.98-36.83,35.98ZM521.94,41.45c-12.17,0-24.48,9.18-24.48,26.73s12.61,27.43,24.48,27.43,24.48-9.33,24.48-27.16-12.32-27-24.48-27Z"/>
      <rect class="cls-1" x="587.07" y="30.79" width="14.03" height="75.47"/>
      <path class="cls-1" d="M594.22,18.53c-5.19,0-9.26-4.07-9.26-9.26s4.79-9.26,10.26-9.26c4.78,0,8.12,3.81,8.12,9.26s-4.01,9.26-9.12,9.26Z"/>
      <path class="cls-1" d="M683.17,106.26v-42.31c0-14.09-7.63-22.5-20.4-22.5s-20.54,8.41-20.54,22.5v42.31h-14.03V30.79h14.03v10.64l1.77-2.16c5.02-6.11,13.35-9.76,22.29-9.76,18.98,0,30.78,12.28,30.78,32.04v44.7h-13.89Z"/>
      <path class="cls-1" d="M897.19,106.26V30.79h14.03v13.94l1.86-3.2c4.42-7.6,11.79-11.73,21.34-12v14.58h-3.08c-13.92,0-20.12,6.9-20.12,22.37v39.78h-14.03Z"/>
      <rect class="cls-1" x="956.87" y="30.79" width="14.03" height="75.47"/>
      <path class="cls-1" d="M964.04,18.53c-5.2,0-9.26-4.07-9.26-9.26s4.79-9.26,10.26-9.26c4.78,0,8.12,3.81,8.12,9.26s-4.01,9.26-9.12,9.26Z"/>
      <path class="cls-1" d="M1052.99,106.26v-42.31c0-14.09-7.63-22.5-20.4-22.5s-20.54,8.41-20.54,22.5v42.31h-14.03V30.79h14.03v10.64l1.77-2.16c5.02-6.11,13.35-9.76,22.29-9.76,18.98,0,30.77,12.28,30.77,32.04v44.7h-13.88Z"/>
      <path class="cls-1" d="M1128.35,144.5c-20.13,0-34.44-9.94-36.82-25.42h14.01c2.85,8.23,11.7,13.5,22.81,13.5,13.98,0,22.66-9.22,22.66-24.06v-15.95l-1.8,2.42c-5.85,7.84-15.59,12.53-26.05,12.53-20.6,0-35.56-16.55-35.56-39.35s14.95-38.65,35.56-38.65c10.82,0,20.55,4.52,26.05,12.1l1.81,2.5v-13.32h14.16v77.73c0,21.85-14.45,35.98-36.82,35.98ZM1126.53,41.45c-12.17,0-24.48,9.18-24.48,26.73s12.61,27.43,24.48,27.43,24.48-9.33,24.48-27.16-12.32-27-24.48-27Z"/>
      <path class="cls-1" d="M751.14,107.59c-22.04,0-37.43-16.12-37.43-39.2s15.04-38.94,37.43-38.94c21.06,0,36.35,15.66,36.35,37.24,0,1.34-.06,5.85-.72,11.1l-33.06-19.29,19.89,5.46v-1.41c-.7-14.15-12.1-21.53-23-21.53-12.7,0-21.73,8.65-23.01,22.04l-.14,10.04c.91,13.96,10.21,22.94,23.69,22.94,8.29,0,14.84-3.28,18.52-9.25h14.99c-5.31,13.06-17.73,20.81-33.51,20.81Z"/>
      <path class="cls-1" d="M840.97,107.59c-22.04,0-37.43-16.12-37.43-39.2s15.04-38.94,37.43-38.94c21.06,0,36.35,15.66,36.35,37.24,0,1.34-.06,5.85-.72,11.1l-33.12-19.32c8.37,2.27,17.95,4.88,18.57,5.11l-.62-.92h2v-.1c-.7-14.15-12.1-21.53-23-21.53-12.7,0-21.73,8.65-23.01,22.04l-.14,10.04c.91,13.96,10.21,22.94,23.69,22.94,8.29,0,14.84-3.28,18.52-9.25h14.99c-5.31,13.06-17.73,20.81-33.51,20.81Z"/>
    </g>
  </g>
</svg>