<svg width="426" height="86" viewBox="0 0 426 86" fill="none" xmlns="http://www.w3.org/2000/svg">
<g clip-path="url(#clip0_1739_5429)">
<path d="M62.33 2.52V62.32H2.52V2.52H62.33ZM64.86 0H0V64.85H64.86V0Z" fill="#002D74"/>
<path d="M42.77 25.4098V41.3498H25.9L39.65 17.2598H17.66V23.4998H29.62L15.85 47.5898H49V25.4098H42.77Z" fill="#002D74"/>
<path d="M42.77 17.2598H49.01V23.4998H42.77V17.2598Z" fill="#CE0E2D"/>
<path d="M86.74 46.84C91.1 40.14 97.54 29.37 102.39 20.61L102.34 20.52C97.76 20.52 92.86 20.52 88.54 20.91C88.63 20.3 88.73 19.68 88.73 19.07C88.73 18.46 88.63 17.83 88.54 17.21C93.92 17.25 96.57 17.44 100.71 17.44C104.33 17.44 106.61 17.35 111.56 17.21V18C106.05 26.73 100.98 35.44 96.09 44.2V44.29C105.21 44.29 108.39 44.2 111.52 43.93C111.47 44.55 111.28 45.16 111.28 45.78C111.28 46.4 111.47 46.97 111.52 47.59C107.85 47.5 104.6 47.37 100.49 47.37C93.48 47.37 88.42 47.54 86.74 47.59V46.84Z" fill="#002D74"/>
<path d="M129.69 35.8099C129.69 42.6599 128.19 46.1899 125.45 46.1899C122.18 46.1899 121.12 42.4399 121.12 37.4899C121.12 30.8199 122.8 27.6399 125.5 27.6399C128.42 27.6399 129.7 30.7299 129.7 35.8199M114.62 37.4499C114.62 45.2699 120.14 48.1499 125.4 48.1499C131.75 48.1499 136.19 43.6699 136.19 36.4699C136.19 29.8499 132.19 25.6699 125.4 25.6699C119.84 25.6699 114.62 29.5399 114.62 37.4499Z" fill="#002D74"/>
<path d="M154.19 36.7102C154.19 42.4702 152.59 45.2402 150.07 45.2402C147.55 45.2402 146 42.7202 146 37.4002C146 30.8002 148.03 28.4102 150.25 28.4102C152.59 28.4102 154.19 30.8802 154.19 36.7102ZM140.35 43.9302C140.35 49.7002 140.21 54.2102 139.99 59.2002C140.73 59.0602 142.01 58.9702 143.28 58.9702C144.55 58.9702 145.83 59.0602 146.58 59.2002C146.22 57.0802 146.22 49.1702 146.22 44.9402H146.31C147.36 47.0502 149.4 48.1602 152.01 48.1602C156.33 48.1602 160.69 44.9402 160.69 36.5802C160.69 28.9102 156.6 25.7002 152.15 25.7002C149.01 25.7002 146.7 27.6002 145.87 30.0702H145.78C145.78 28.8002 146 27.2402 146.09 26.2602C145.08 26.3502 144.06 26.4702 143.05 26.4702C142.04 26.4702 140.98 26.3402 139.98 26.2602C140.2 31.2602 140.34 35.7502 140.34 41.5102V43.9502L140.35 43.9302Z" fill="#002D74"/>
<path d="M178.69 36.7102C178.69 42.4702 177.1 45.2402 174.57 45.2402C172.04 45.2402 170.5 42.7202 170.5 37.4002C170.5 30.8002 172.54 28.4102 174.74 28.4102C177.09 28.4102 178.68 30.8802 178.68 36.7102M164.84 43.9302C164.84 49.7002 164.7 54.2102 164.49 59.2002C165.23 59.0602 166.51 58.9702 167.78 58.9702C169.05 58.9702 170.32 59.0602 171.07 59.2002C170.72 57.0802 170.72 49.1702 170.72 44.9402H170.8C171.86 47.0502 173.89 48.1602 176.51 48.1602C180.82 48.1602 185.17 44.9402 185.17 36.5802C185.17 28.9102 181.09 25.7002 176.63 25.7002C173.49 25.7002 171.2 27.6002 170.36 30.0702H170.27C170.27 28.8002 170.48 27.2402 170.58 26.2602C169.57 26.3502 168.55 26.4702 167.55 26.4702C166.55 26.4702 165.48 26.3402 164.48 26.2602C164.69 31.2602 164.83 35.7502 164.83 41.5102V43.9502L164.84 43.9302Z" fill="#002D74"/>
<path d="M199.65 40.7804C199.65 43.6304 198.33 45.1304 196.38 45.1304C194.84 45.1304 193.87 43.9404 193.87 41.7804C193.87 37.3304 197.18 37.5404 199.7 36.1304C199.7 37.1404 199.65 38.2004 199.65 40.7704M189.78 31.4104H190.09C190.97 30.1704 193.35 28.9804 195.37 28.9804C198.02 28.9804 199.6 30.7104 199.6 32.8204C199.6 34.4104 199.16 34.7604 194.22 35.9604C190.26 36.9304 187.71 38.5604 187.71 42.4004C187.71 45.2204 189.56 48.1604 194.01 48.1604C196.7 48.1604 198.38 46.8104 199.75 44.9704C200.45 46.9404 201.78 48.1604 203.94 48.1604C205.3 48.1604 206.32 47.8604 208 46.9804V45.9204C206.19 45.9204 205.4 45.6604 205.4 42.8804C205.4 39.7104 205.54 36.6204 205.54 32.8604C205.54 27.6604 202.13 25.6904 197.46 25.6904C194.68 25.6904 191.59 26.7804 189.21 28.7804L189.79 31.4204L189.78 31.4104Z" fill="#002D74"/>
<path d="M211.71 42.0199C212.41 43.8699 213.82 45.6399 216.92 45.6399C218.94 45.6399 220.13 44.3499 220.13 43.1299C220.13 39.1099 210.04 40.4399 210.04 32.7699C210.04 27.7899 214.1 25.6699 217.74 25.6699C220.15 25.6699 221.95 26.3699 223.93 27.7399C223.41 28.8799 223.05 30.3299 222.87 31.6099H221.64C221.33 30.1899 220.06 27.8899 217.3 27.8899C215.55 27.8899 214.2 28.9199 214.2 30.4599C214.2 34.7299 224.56 32.8799 224.56 40.6899C224.56 45.7499 220.41 48.1299 216.04 48.1299C213.44 48.1299 211.19 47.0799 209.95 46.2399C210.3 44.8199 210.52 43.4099 210.61 41.9999H211.72L211.71 42.0199Z" fill="#002D74"/>
<path d="M242.15 29.41C242.15 24.47 242.07 21.09 241.8 17.21C242.76 17.3 243.96 17.43 245.4 17.43C246.84 17.43 248.04 17.29 249.01 17.21C248.74 21.08 248.65 24.47 248.65 29.41V35.39C248.65 40.33 248.74 43.71 249.01 47.59C248.04 47.5 246.85 47.37 245.4 47.37C243.95 47.37 242.76 47.51 241.8 47.59C242.07 43.71 242.15 40.33 242.15 35.39V29.41Z" fill="#002D74"/>
<path d="M261.22 29.5399H261.31C262.95 27.1599 265.19 25.6699 267.97 25.6699C272.37 25.6699 274.83 28.1399 274.83 33.7699C274.83 36.7699 274.65 38.8899 274.65 41.1799C274.65 43.0299 274.78 45.3299 274.88 47.5799C274.13 47.4399 272.85 47.3599 271.59 47.3599C270.33 47.3599 269.05 47.4499 268.29 47.5799C268.68 44.4099 268.78 40.1699 268.78 34.9199C268.78 31.2499 267.45 29.5299 265.16 29.5299C262.52 29.5299 261.32 31.9499 261.32 36.0199V37.7899C261.32 41.3599 261.42 44.4999 261.68 47.5899C260.92 47.4999 259.74 47.3699 258.38 47.3699C257.02 47.3699 255.88 47.5099 255.08 47.5899C255.35 44.4999 255.44 41.3699 255.44 37.7899V36.0199C255.44 32.4399 255.35 29.3199 255.08 26.2299C256.14 26.3199 257.15 26.4399 258.21 26.4399C259.27 26.4399 260.27 26.3099 261.42 26.2299L261.23 29.5299L261.22 29.5399Z" fill="#002D74"/>
<path d="M285.19 37.3502C285.19 30.6002 287.36 28.7102 289.22 28.7102C291.52 28.7102 293.16 31.0902 293.16 36.5602C293.16 42.9002 291.4 45.4102 289 45.4102C287.02 45.4102 285.19 43.3402 285.19 37.3402M299.03 29.4602C299.03 23.6902 299.17 19.2102 299.38 14.2402C298.64 14.3802 297.36 14.4702 296.09 14.4702C294.82 14.4702 293.54 14.3802 292.79 14.2402C293.02 19.2102 293.15 23.6902 293.15 28.9302H293.06C292.04 27.0802 289.74 25.6902 287.17 25.6902C282.41 25.6902 278.68 30.3902 278.68 36.7002C278.68 43.0102 281.13 48.1602 287.08 48.1602C290.48 48.1602 292.3 46.4302 293.4 43.8802L293.49 43.9702C293.49 44.3702 293.28 47.2102 293.14 47.6102C293.71 47.4702 294.89 47.4002 296.08 47.4002C297.35 47.4002 298.63 47.4602 299.37 47.6102C299.16 42.6102 299.02 38.1102 299.02 32.3402V29.4702L299.03 29.4602Z" fill="#002D74"/>
<path d="M317.74 44.2907H317.65C316.02 46.6607 313.77 48.1507 310.99 48.1507C306.59 48.1507 304.13 45.6907 304.13 40.0507C304.13 37.0607 304.3 34.9307 304.3 32.6307C304.3 30.7807 304.18 28.4807 304.08 26.2307C304.84 26.3607 306.11 26.4407 307.39 26.4407C308.67 26.4407 309.93 26.3507 310.68 26.2307C310.28 29.4007 310.19 33.6507 310.19 38.8907C310.19 42.5607 311.52 44.2807 313.81 44.2807C316.46 44.2807 317.65 41.8407 317.65 37.7807V36.0107C317.65 32.4307 317.57 29.3107 317.3 26.2207C318.05 26.3107 319.23 26.4307 320.59 26.4307C321.95 26.4307 323.09 26.3007 323.89 26.2207C323.63 29.3107 323.54 32.4307 323.54 36.0107V37.7807C323.54 41.3507 323.63 44.5007 323.89 47.5807C322.84 47.4907 321.82 47.3607 320.77 47.3607C319.72 47.3607 318.71 47.5007 317.57 47.5807L317.74 44.2807V44.2907Z" fill="#002D74"/>
<path d="M329.25 42.0199C329.95 43.8699 331.37 45.6399 334.47 45.6399C336.48 45.6399 337.67 44.3499 337.67 43.1299C337.67 39.1099 327.58 40.4399 327.58 32.7699C327.58 27.7899 331.63 25.6699 335.28 25.6699C337.69 25.6699 339.49 26.3699 341.48 27.7399C340.94 28.8799 340.59 30.3299 340.41 31.6099H339.18C338.87 30.1899 337.6 27.8899 334.83 27.8899C333.08 27.8899 331.72 28.9199 331.72 30.4599C331.72 34.7299 342.09 32.8799 342.09 40.6899C342.09 45.7499 337.94 48.1299 333.58 48.1299C330.98 48.1299 328.73 47.0799 327.49 46.2399C327.84 44.8199 328.06 43.4099 328.15 41.9999H329.26L329.25 42.0199Z" fill="#002D74"/>
<path d="M357.28 26.4602C357.19 26.9002 357.15 27.2502 357.15 27.6502C357.15 28.0102 357.19 28.4002 357.28 28.7402L353.44 28.6602C353.26 31.3002 353.13 36.1102 353.13 38.4902C353.13 44.6202 353.57 45.6402 355.6 45.6402C356.7 45.6402 357.1 45.5002 357.63 45.1902V47.0002C356.49 47.7102 354.5 48.1502 352.83 48.1502C349.18 48.1502 347.24 45.7602 347.24 41.3102C347.24 37.9202 347.55 32.4102 347.52 28.7002L344.44 28.7402C344.53 28.4002 344.55 28.0002 344.55 27.6502C344.55 27.2502 344.53 26.9002 344.44 26.4602L347.52 26.6002C347.52 24.7502 347.48 23.4202 347.34 21.1802C349.37 20.3302 351.38 19.4102 353.36 18.4502L353.8 18.7602C353.58 20.6502 353.4 23.9102 353.4 26.5502L357.28 26.4602Z" fill="#002D74"/>
<path d="M366.65 31.61L366.73 31.69C368.27 27.65 370.42 25.79 373.36 25.79C373.61 25.79 373.83 25.83 374.04 25.83C373.87 26.71 373.78 27.65 373.78 29C373.78 29.89 373.78 30.92 373.83 31.94L373.44 32.29C372.87 31.94 372.13 31.68 371.2 31.68C368.57 31.68 366.94 33.7 366.94 36.05V37.81C366.94 41.38 367.03 44.52 367.29 47.61C366.54 47.52 365.36 47.39 364 47.39C362.64 47.39 361.5 47.53 360.7 47.61C360.97 44.52 361.06 41.39 361.06 37.81V36.04C361.06 32.46 360.97 29.34 360.7 26.25C361.71 26.34 362.73 26.47 363.74 26.47C364.75 26.47 365.75 26.33 366.77 26.25L366.64 31.62L366.65 31.61Z" fill="#002D74"/>
<path d="M378.38 36.03C378.38 32.45 378.29 29.33 378.03 26.24C378.82 26.33 379.96 26.45 381.32 26.45C382.68 26.45 383.87 26.32 384.62 26.24C384.35 29.33 384.27 32.45 384.27 36.03V37.8C384.27 41.37 384.35 44.51 384.62 47.6C383.88 47.51 382.69 47.38 381.32 47.38C379.95 47.38 378.82 47.52 378.03 47.6C378.29 44.51 378.38 41.38 378.38 37.8V36.03ZM381.29 14.46C383.23 14.46 384.77 16 384.77 17.93C384.77 19.86 383.23 21.41 381.29 21.41C379.35 21.41 377.81 19.86 377.81 17.93C377.81 16 379.35 14.46 381.29 14.46Z" fill="#002D74"/>
<path d="M395.38 34.9904C395.47 31.5204 396.31 27.6404 398.9 27.6404C401.2 27.6404 402.08 30.5304 402.17 34.9904H395.38ZM408.01 36.9504C408.06 36.6404 408.06 36.2404 408.06 35.5104C408.06 29.3404 404.81 25.6904 399.09 25.6904C393.37 25.6904 388.89 29.3804 388.89 37.0404C388.89 44.7004 393.85 48.1604 399.57 48.1604C402.87 48.1604 404.8 47.2804 406.26 46.1804L407.22 43.7204L406.69 43.3304C405.11 44.6404 403.31 45.3204 401.29 45.3204C397.24 45.3204 395.38 41.7004 395.38 36.9604H408.01V36.9504Z" fill="#002D74"/>
<path d="M412.47 42.0199C413.18 43.8699 414.59 45.6399 417.7 45.6399C419.71 45.6399 420.9 44.3499 420.9 43.1299C420.9 39.1099 410.81 40.4399 410.81 32.7699C410.81 27.7899 414.87 25.6699 418.5 25.6699C420.92 25.6699 422.72 26.3699 424.7 27.7399C424.17 28.8799 423.83 30.3299 423.66 31.6099H422.42C422.11 30.1899 420.84 27.8899 418.07 27.8899C416.32 27.8899 414.96 28.9199 414.96 30.4599C414.96 34.7299 425.33 32.8799 425.33 40.6899C425.33 45.7499 421.18 48.1299 416.81 48.1299C414.2 48.1299 411.96 47.0799 410.72 46.2399C411.07 44.8199 411.28 43.4099 411.38 41.9999H412.48L412.47 42.0199Z" fill="#002D74"/>
<path d="M90.2599 68.6006H93.7099L92.6999 73.3506H99.8299L100.83 68.6006H104.28L101.58 81.2606H98.1399L99.3099 75.7706H92.1799L91.0099 81.2606H87.5699L90.2599 68.6006Z" fill="#002D74"/>
<path d="M116.14 78.4206C114.76 80.6706 112.4 81.6106 109.54 81.6106C105.77 81.6106 103.58 80.0906 104.34 76.5006C105.1 72.9106 107.94 71.3906 111.7 71.3906C115.82 71.3906 117.36 73.4706 116.6 77.0506L116.55 77.3406H107.4V77.3806C107.2 78.2806 107.82 79.6706 109.95 79.6706C111.21 79.6706 112.19 79.2506 112.81 78.4306H116.14V78.4206ZM113.72 75.5006V75.4606C113.84 74.9406 113.52 73.3406 111.24 73.3406C108.77 73.3406 107.85 75.2206 107.81 75.4606V75.5006H113.72Z" fill="#002D74"/>
<path d="M118.78 74.6606C119.77 71.7406 122.54 71.3906 125.08 71.3906C129.55 71.3906 130.21 72.8406 129.83 74.6106L128.84 79.3306C128.66 80.1706 128.68 80.7706 128.79 81.2506H125.67C125.63 80.9206 125.61 80.5906 125.67 80.2506C124.37 81.3106 122.33 81.6106 120.93 81.6106C118.44 81.6106 116.89 80.7406 117.36 78.5206C117.84 76.2206 119.98 75.7206 121.92 75.6006L125.29 75.3706C126.24 75.2906 126.59 75.1306 126.76 74.3706C126.93 73.6106 126.36 73.2306 124.56 73.2306C123.22 73.2306 122.52 73.3406 121.79 74.6506H118.78V74.6606ZM126.38 76.6406C125.74 76.9206 125.08 76.9906 124.47 77.0406L122.63 77.2006C121.5 77.3006 120.88 77.5906 120.7 78.4406C120.52 79.2806 121.23 79.7706 122.39 79.7706C123.96 79.7706 125.88 79.0106 126.22 77.4006L126.37 76.6306L126.38 76.6406Z" fill="#002D74"/>
<path d="M134.16 68.7998H137.28L136.66 71.7498H139.18L138.74 73.8398H136.22L135.28 78.2698C135.12 79.0198 135.3 79.2598 136.11 79.2598C136.66 79.2598 137.15 79.2298 137.66 79.1898L137.21 81.2898C136.61 81.3598 135.4 81.4498 134.71 81.4498C131.75 81.4498 131.71 80.3598 132.07 78.6298L133.1 73.8398H131.13L131.57 71.7498H133.54L134.17 68.7998H134.16Z" fill="#002D74"/>
<path d="M140.42 71.7506H143.54L141.52 81.2506H138.4L140.42 71.7506ZM141.12 68.3906H144.24L143.78 70.5706H140.65L141.11 68.3906H141.12Z" fill="#002D74"/>
<path d="M152.7 75.8598C152.97 74.5698 152.42 73.9198 151.01 73.9198C149.6 73.9198 148.17 74.6398 147.74 76.6598L146.77 81.2598H143.64L145.67 71.7598H148.69L148.39 73.1398H148.42C149.17 72.3498 150.83 71.5098 152.66 71.5098C154.28 71.5098 156.6 72.1298 156.02 74.9298L154.67 81.2698H151.55L152.7 75.8698V75.8598Z" fill="#002D74"/>
<path d="M167.71 71.75H170.73L168.86 80.49C168.17 83.78 165.77 85.04 161.8 85.04C159.46 85.04 156.34 84.77 156.62 81.9H159.96C160 82.68 160.51 83.09 162.32 83.09C163.86 83.09 165.27 82.68 165.78 80.38L165.94 79.62C164.84 80.61 163.42 81.02 161.84 81.02C158.12 81.02 156.93 78.7 157.45 76.26C158 73.67 160.14 71.5 164.12 71.5C165.5 71.5 166.83 71.9 167.43 72.91H167.47L167.72 71.76L167.71 71.75ZM163.08 78.92C164.46 78.92 166.16 78.48 166.62 76.3C167.08 74.13 165.57 73.69 164.19 73.69C162.81 73.69 161.1 74.13 160.65 76.3C160.18 78.47 161.71 78.92 163.07 78.92" fill="#002D74"/>
<path d="M183.23 68.6006H195.07L194.55 71.0006H186.16L185.59 73.6306H193.56L193.08 75.9406H185.11L184.49 78.8506H192.95L192.44 81.2606H180.53L183.23 68.6006Z" fill="#002D74"/>
<path d="M197.06 68.3906H200.19L197.46 81.2606H194.34L197.06 68.3906Z" fill="#002D74"/>
<path d="M212.01 78.4206C210.62 80.6706 208.27 81.6106 205.41 81.6106C201.65 81.6106 199.45 80.0906 200.21 76.5006C200.97 72.9106 203.82 71.3906 207.57 71.3906C211.68 71.3906 213.22 73.4706 212.46 77.0506L212.42 77.3406H203.26V77.3806C203.07 78.2806 203.68 79.6706 205.81 79.6706C207.07 79.6706 208.05 79.2506 208.68 78.4306H212.01V78.4206ZM209.58 75.5006L209.6 75.4606C209.7 74.9406 209.39 73.3406 207.09 73.3406C204.62 73.3406 203.71 75.2206 203.67 75.4606V75.5006H209.58Z" fill="#002D74"/>
<path d="M229.32 75.5503C229.6 74.2703 228.67 73.9303 227.76 73.9303C226.47 73.9303 225.24 74.6303 224.94 76.1203L223.85 81.2703H220.72L221.93 75.5603C222.22 74.2803 221.27 73.9403 220.4 73.9403C219.07 73.9403 217.84 74.6403 217.54 76.1303L216.44 81.2803H213.32L215.35 71.7803H218.37L218.06 73.1703H218.1C218.85 72.3703 220.51 71.5303 222.34 71.5303C224.17 71.5303 224.98 72.2503 225.23 73.3203C226.35 72.2003 227.81 71.5303 229.55 71.5303C231.46 71.5303 233.14 72.3403 232.61 74.8503L231.25 81.2903H228.13L229.33 75.5803L229.32 75.5503Z" fill="#002D74"/>
<path d="M245.78 78.4206C244.39 80.6706 242.04 81.6106 239.18 81.6106C235.42 81.6106 233.22 80.0906 233.98 76.5006C234.74 72.9106 237.58 71.3906 241.34 71.3906C245.45 71.3906 246.99 73.4706 246.24 77.0506L246.18 77.3406H237.03V77.3806C236.83 78.2806 237.45 79.6706 239.58 79.6706C240.84 79.6706 241.82 79.2506 242.43 78.4306H245.77L245.78 78.4206ZM243.35 75.5006V75.4606C243.48 74.9406 243.15 73.3406 240.87 73.3406C238.4 73.3406 237.48 75.2206 237.44 75.4606V75.5006H243.35Z" fill="#002D74"/>
<path d="M256.13 75.8598C256.41 74.5698 255.86 73.9198 254.44 73.9198C253.02 73.9198 251.6 74.6398 251.19 76.6598L250.21 81.2598H247.08L249.1 71.7598H252.12L251.82 73.1398H251.85C252.6 72.3498 254.27 71.5098 256.09 71.5098C257.71 71.5098 260.03 72.1298 259.43 74.9298L258.09 81.2698H254.96L256.11 75.8698L256.13 75.8598Z" fill="#002D74"/>
<path d="M264.03 68.7998H267.16L266.54 71.7498H269.06L268.62 73.8398H266.09L265.15 78.2698C264.99 79.0198 265.17 79.2598 265.98 79.2598C266.54 79.2598 267.01 79.2298 267.53 79.1898L267.08 81.2898C266.48 81.3598 265.28 81.4498 264.58 81.4498C261.62 81.4498 261.59 80.3598 261.94 78.6298L262.97 73.8398H261L261.45 71.7498H263.42L264.04 68.7998H264.03Z" fill="#002D74"/>
<path d="M285.55 71.0006H280.86L281.37 68.6006H294.21L293.69 71.0006H288.99L286.8 81.2606H283.37L285.55 71.0006Z" fill="#002D74"/>
<path d="M303.36 78.4206C301.97 80.6706 299.62 81.6106 296.76 81.6106C293 81.6106 290.8 80.0906 291.56 76.5006C292.32 72.9106 295.16 71.3906 298.92 71.3906C303.04 71.3906 304.58 73.4706 303.82 77.0506L303.77 77.3406H294.61V77.3806C294.41 78.2806 295.03 79.6706 297.16 79.6706C298.42 79.6706 299.4 79.2506 300.01 78.4306H303.35L303.36 78.4206ZM300.93 75.5006L300.95 75.4606C301.06 74.9406 300.74 73.3406 298.45 73.3406C295.98 73.3406 295.06 75.2206 295.03 75.4606V75.5006H300.94H300.93Z" fill="#002D74"/>
<path d="M314.39 75.2602C314.28 74.0102 313.43 73.6002 312.16 73.6002C310.22 73.6002 308.88 74.6501 308.49 76.5201C308.1 78.3901 308.99 79.4402 310.92 79.4402C312.31 79.4402 313.51 78.6902 313.92 77.5102H317.14C315.86 80.8602 313.3 81.6301 310.19 81.6301C306.6 81.6301 304.49 80.1101 305.25 76.5201C306.01 72.9301 308.87 71.4102 312.61 71.4102C315.03 71.4102 317.68 72.1401 317.62 75.2701H314.38L314.39 75.2602Z" fill="#002D74"/>
<path d="M320.72 68.3906H323.85L322.84 73.1406H322.87C323.51 72.3506 325.17 71.5006 327 71.5006C328.62 71.5006 330.94 72.1306 330.35 74.9206L329 81.2606H325.88L327.03 75.8606C327.3 74.5706 326.75 73.9206 325.35 73.9206C323.95 73.9206 322.51 74.6406 322.09 76.6606L321.11 81.2606H317.99L320.72 68.3906Z" fill="#002D74"/>
<path d="M340.35 75.8598C340.62 74.5698 340.06 73.9198 338.66 73.9198C337.26 73.9198 335.82 74.6398 335.4 76.6598L334.42 81.2598H331.3L333.32 71.7598H336.34L336.03 73.1398H336.08C336.82 72.3498 338.49 71.5098 340.32 71.5098C341.93 71.5098 344.25 72.1298 343.68 74.9298L342.32 81.2698H339.2L340.35 75.8698V75.8598Z" fill="#002D74"/>
<path d="M352.53 71.4004C356.29 71.4004 358.49 72.9204 357.72 76.5104C356.97 80.1004 354.13 81.6204 350.36 81.6204C346.59 81.6204 344.4 80.1004 345.16 76.5104C345.92 72.9204 348.76 71.4004 352.52 71.4004M350.83 79.4204C352.77 79.4204 354.11 78.3704 354.5 76.5004C354.9 74.6404 354 73.5804 352.07 73.5804C350.14 73.5804 348.79 74.6304 348.4 76.5004C348.01 78.3704 348.9 79.4204 350.83 79.4204Z" fill="#002D74"/>
<path d="M361.3 68.3906H364.42L361.69 81.2606H358.57L361.3 68.3906Z" fill="#002D74"/>
<path d="M371.9 71.4004C375.66 71.4004 377.86 72.9204 377.1 76.5104C376.34 80.1004 373.49 81.6204 369.74 81.6204C365.99 81.6204 363.78 80.1004 364.54 76.5104C365.3 72.9204 368.14 71.4004 371.9 71.4004ZM370.2 79.4204C372.13 79.4204 373.48 78.3704 373.87 76.5004C374.27 74.6404 373.37 73.5804 371.44 73.5804C369.51 73.5804 368.16 74.6304 367.77 76.5004C367.38 78.3704 368.26 79.4204 370.21 79.4204" fill="#002D74"/>
<path d="M388.83 71.75H391.85L389.98 80.49C389.29 83.78 386.89 85.04 382.92 85.04C380.59 85.04 377.46 84.77 377.74 81.9H381.08C381.11 82.68 381.62 83.09 383.44 83.09C384.98 83.09 386.4 82.68 386.89 80.38L387.05 79.62C385.95 80.61 384.53 81.02 382.96 81.02C379.23 81.02 378.05 78.7 378.55 76.26C379.1 73.67 381.25 71.5 385.22 71.5C386.6 71.5 387.93 71.9 388.53 72.91H388.57L388.82 71.76L388.83 71.75ZM384.2 78.92C385.58 78.92 387.28 78.48 387.74 76.3C388.2 74.13 386.69 73.69 385.31 73.69C383.93 73.69 382.22 74.13 381.76 76.3C381.3 78.47 382.83 78.92 384.19 78.92" fill="#002D74"/>
<path d="M393.91 71.7506H397.03L395.01 81.2506H391.9L393.91 71.7506ZM394.63 68.3906H397.76L397.29 70.5706H394.18L394.64 68.3906H394.63Z" fill="#002D74"/>
<path d="M409.58 78.4206C408.2 80.6706 405.82 81.6106 402.98 81.6106C399.21 81.6106 397.01 80.0906 397.78 76.5006C398.55 72.9106 401.39 71.3906 405.14 71.3906C409.25 71.3906 410.79 73.4706 410.04 77.0506L409.99 77.3406H400.83V77.3806C400.64 78.2806 401.26 79.6706 403.38 79.6706C404.64 79.6706 405.62 79.2506 406.24 78.4306H409.58V78.4206ZM407.14 75.5006L407.16 75.4606C407.27 74.9406 406.95 73.3406 404.66 73.3406C402.2 73.3406 401.27 75.2206 401.24 75.4606L401.22 75.5006H407.14Z" fill="#002D74"/>
<path d="M414.42 78.3106C414.41 79.1306 414.85 79.6606 416.46 79.6606C417.88 79.6606 418.78 79.3206 418.92 78.6206C419.05 78.0906 418.82 77.8806 417.36 77.6806L414.61 77.2906C412.68 77.0106 411.67 76.4006 412.06 74.5806C412.61 72.0006 415.34 71.3906 417.92 71.3906C422.31 71.3906 423.05 72.8306 422.88 74.6006H419.44C419.46 73.6206 418.5 73.3406 417.59 73.3406C416.78 73.3406 415.54 73.4106 415.35 74.3506C415.24 74.8006 415.42 75.0906 416.74 75.2406L418.85 75.4706C421.94 75.8106 422.79 76.7506 422.43 78.3906C421.82 81.2106 418.59 81.6106 415.88 81.6106C412.28 81.6106 410.66 80.5606 410.99 78.3106H414.43H414.42Z" fill="#002D74"/>
</g>
<defs>
<clipPath id="clip0_1739_5429">
<rect width="425.32" height="85.04" fill="white"/>
</clipPath>
</defs>
</svg>
