<?xml version="1.0" encoding="UTF-8"?>
<svg id="Layer_1" data-name="Layer 1" xmlns="http://www.w3.org/2000/svg" viewBox="0 0 192 108">
  <defs>
    <style>
      .cls-1 {
        fill: #fff;
      }
    </style>
  </defs>
  <g>
    <path class="cls-1" d="M93.14,53.22c-1.37,0-2.94-.04-4.75-.04-.62,0-1.33.02-2.08.03h-1.07c.34-.25,1.72.17,1.72-1.21l-.08-11.01c0-1.44-1.48-.93-1.75-1.24h.48c1.02,0,1.98.04,2.79.04,1.21,0,2.23-.04,3.54-.04,5.02,0,7.84,3.08,7.84,6.75,0,4.23-2.71,6.71-6.63,6.71ZM96.6,46.78c0-4.26-1.9-6.89-4.9-6.89h-1.79v10.85c0,1.42.97,2.29,2.51,2.29,2.46,0,4.18-2.21,4.18-6.26Z"/>
    <path class="cls-1" d="M109.17,53.7c-4.48,0-7.47-3.39-7.47-7.17s2.99-7.17,7.47-7.17,7.47,3.39,7.47,7.17-2.99,7.17-7.47,7.17ZM109.17,53.6c2.54,0,4.16-2.81,4.16-7.07s-1.62-7.08-4.16-7.08-4.16,2.82-4.16,7.08,1.62,7.07,4.16,7.07Z"/>
    <path class="cls-1" d="M130.74,42.63v10.59h-.97l-8.91-11.34-.31-.47-.06,8.95c0,1.67.67,2.36,1.29,2.63.47.2,1.25.08,1.4.23h-5.23c.15-.15.6-.05,1.07-.25.63-.27,1.29-.96,1.29-2.63v-9.11c-.69-1-1.27-1.27-1.94-1.35-.24-.03-.38-.04-.44-.13h5.07l7.2,9.05.45.48-.07-6.64c0-1.67-.67-2.35-1.29-2.62-.48-.21-1.26-.11-1.41-.26h5.23c-.15.15-.6.05-1.07.25-.63.27-1.29.96-1.29,2.62Z"/>
    <path class="cls-1" d="M147.8,42.63v10.59h-.97l-8.91-11.34-.31-.47-.06,8.95c0,1.67.67,2.36,1.29,2.63.47.2,1.25.08,1.4.23h-5.23c.15-.15.6-.05,1.07-.25.63-.27,1.29-.96,1.29-2.63v-9.11c-.69-1-1.27-1.27-1.94-1.35-.24-.03-.38-.04-.44-.13h5.07l7.2,9.05.45.48-.07-6.64c0-1.67-.67-2.35-1.29-2.62-.48-.21-1.26-.11-1.41-.26h5.23c-.15.15-.6.05-1.08.25-.63.27-1.29.96-1.29,2.62Z"/>
    <path class="cls-1" d="M163.64,48.13l-.72,5.09h-11.78c.22-.37,1.77.21,1.77-1.33v-10.8c0-1.55-1.55-.95-1.77-1.34h10.87l.88,4.32c-.19,0-.17-.35-.98-1.71-.98-1.62-2.33-2.48-4.83-2.48h-1.13v6h.52c1.46,0,2.52-1.08,2.61-2.58.02-.31.06-.45.16-.5v6.92c-.11-.05-.15-.18-.16-.5-.09-1.86-1.14-3.19-2.6-3.19h-.52v5.61c0,.96.37,1.46,1.7,1.46,3.25,0,5-2.32,5.65-4.38.13-.4.15-.59.33-.59Z"/>
  </g>
  <g>
    <path class="cls-1" d="M9.24,52.76c0,.11-.39.52-.86.52-.21,0-.36-.04-.46-.14-.1-.09-.16-.22-.21-.4-.27.22-.54.4-.85.49-.12.03-.24.05-.37.05-.37,0-.73-.17-.73-.7,0-.15.02-.27.08-.39.02-.05.05-.09.09-.14.16-.2.46-.37.97-.59l.81-.34v-.98c0-.1-.01-.19-.04-.25-.04-.09-.11-.14-.23-.14,0,0,0,0,0,0h0c-.29,0-.51.31-.63.69-.07.22-.07.36-.12.48,0,.02-.02.03-.02.05l-.74-.43c.16-.29.56-.55,1.03-.7.13-.04.27-.08.41-.1.03,0,.06-.01.1-.01.1-.01.2-.02.29-.02.52,0,.83.23.87.84,0,.04,0,.09,0,.14v1.85s0,.38,0,.38c0,.14.07.21.18.21.09,0,.16-.05.23-.1,0,0,0,0,0,0,0,0,0,0,0,0,0,0,.03-.02.05-.04.05-.05.13-.13.17-.21,0,0,0,0,0,.01ZM7.7,51.15c-.7.29-1.01.65-1.01,1.13,0,.18.02.31.07.4.06.14.17.19.32.19.03,0,.07,0,.11-.01.28-.06.47-.31.51-.6,0-.03,0-.06,0-.09v-1.02Z"/>
    <path class="cls-1" d="M15.21,52.05c0,.81-.62,1.24-1.48,1.24-.37,0-.85-.06-1.31-.22l.06-1.2c.07,0,.05.08.18.34.2.43.52,1.05,1.15,1.05.48,0,.7-.34.7-.68,0-.86-2.08-.53-2.08-1.85,0-.53.5-1.02,1.34-1.02.45,0,.93.14,1.15.29l-.05.93c-.06,0-.07-.14-.21-.39-.18-.32-.45-.79-1.01-.79-.32,0-.54.25-.54.57,0,.76,2.08.46,2.08,1.74Z"/>
    <path class="cls-1" d="M21.41,52.05c0,.81-.62,1.24-1.48,1.24-.37,0-.85-.06-1.31-.22l.06-1.2c.07,0,.05.08.18.34.2.43.52,1.05,1.15,1.05.48,0,.7-.34.7-.68,0-.86-2.08-.53-2.08-1.85,0-.53.5-1.02,1.34-1.02.45,0,.93.14,1.15.29l-.05.93c-.06,0-.07-.14-.21-.39-.18-.32-.45-.79-1.01-.79-.32,0-.54.25-.54.57,0,.76,2.08.46,2.08,1.74Z"/>
    <path class="cls-1" d="M28.64,51.49c0,.97-.76,1.79-1.86,1.79s-1.86-.82-1.86-1.79.76-1.79,1.86-1.79,1.86.82,1.86,1.79ZM27.62,51.49c0-1.29-.37-1.77-.83-1.77s-.83.48-.83,1.77.35,1.77.81,1.77.86-.48.86-1.77Z"/>
    <path class="cls-1" d="M35.15,52.05c0,.18-.31,1.24-1.45,1.24-1.02,0-1.61-.82-1.61-1.72,0-1.06.69-1.86,1.67-1.86.69,0,1.15.4,1.29.83l-.77.45c-.01-.07-.01-.14,0-.23,0-.11.01-.19,0-.34,0-.37-.26-.68-.59-.68-.49,0-.78.6-.78,1.3,0,1.13.57,1.66,1.13,1.66.88,0,.96-.7,1.05-.7.04,0,.06.03.06.06Z"/>
    <path class="cls-1" d="M40.57,53.23h-2.07c.06-.14.58.07.58-.5v-1.49s0-.03,0-.04c0-.01,0-.03,0-.04,0-.08-.01-.14-.02-.18-.02-.05-.05-.12-.11-.19l-.26-.33c.06-.03.13-.06.21-.1.06-.03.12-.07.19-.1.02-.01.04-.02.06-.04.19-.11.47-.28.84-.51,0,0,0,0,0,0h0v3.03c0,.57.52.37.58.5ZM39.02,48.56c0-.3.23-.54.51-.54s.51.24.51.54-.23.54-.51.54-.51-.24-.51-.54Z"/>
    <path class="cls-1" d="M47.33,52.76c0,.11-.39.52-.86.52-.21,0-.36-.04-.46-.14-.1-.09-.16-.22-.21-.4-.27.22-.54.4-.85.49-.12.03-.24.05-.37.05-.37,0-.73-.17-.73-.7,0-.15.02-.27.08-.39.02-.05.05-.09.09-.14.16-.2.46-.37.97-.59l.81-.34v-.98c0-.1-.01-.19-.04-.25-.04-.09-.11-.14-.23-.14,0,0,0,0,0,0h0c-.29,0-.51.31-.63.69-.07.22-.07.36-.12.48,0,.02-.02.03-.02.05l-.74-.43c.16-.29.56-.55,1.03-.7.13-.04.27-.08.41-.1.03,0,.06-.01.1-.01.1-.01.2-.02.29-.02.52,0,.83.23.87.84,0,.04,0,.09,0,.14v1.85s0,.38,0,.38c0,.14.07.21.18.21.09,0,.16-.05.23-.1,0,0,0,0,0,0,0,0,0,0,0,0,0,0,.03-.02.05-.04.05-.05.13-.13.17-.21,0,0,0,0,0,.01ZM45.79,51.15c-.7.29-1.01.65-1.01,1.13,0,.18.02.31.07.4.06.14.17.19.32.19.03,0,.07,0,.11-.01.28-.06.47-.31.51-.6,0-.03,0-.06,0-.09v-1.02Z"/>
    <path class="cls-1" d="M53.65,51.47l-.28,1.77c-.47,0-.96-.01-1.43-.01s-.96,0-1.43.01l2.08-3.33h-.06c-.57,0-1.11.36-1.43.77-.35.44-.27.6-.37.6l.29-1.42c.45,0,.88.01,1.32.01s.88,0,1.37-.01l-2.1,3.33h.06c.76,0,1.41-.56,1.74-1.2.17-.34.16-.52.24-.52Z"/>
    <path class="cls-1" d="M59.13,53.23h-2.07c.06-.14.58.07.58-.5v-1.49s0-.03,0-.04c0-.01,0-.03,0-.04,0-.08-.01-.14-.02-.18-.02-.05-.05-.12-.11-.19l-.26-.33c.06-.03.13-.06.21-.1.06-.03.12-.07.19-.1.02-.01.04-.02.06-.04.19-.11.47-.28.84-.51,0,0,0,0,0,0h0v3.03c0,.57.52.37.58.5ZM57.58,48.56c0-.3.23-.54.51-.54s.51.24.51.54-.23.54-.51.54-.51-.24-.51-.54Z"/>
    <path class="cls-1" d="M66.15,51.49c0,.97-.76,1.79-1.86,1.79s-1.86-.82-1.86-1.79.76-1.79,1.86-1.79,1.86.82,1.86,1.79ZM65.13,51.49c0-1.29-.37-1.77-.83-1.77s-.83.48-.83,1.77.35,1.77.81,1.77.86-.48.86-1.77Z"/>
    <path class="cls-1" d="M72.04,52.73v-2.11c0-.37-.16-.68-.47-.68-.26,0-.49.14-.81.36v2.43c0,.57.45.37.5.5h-1.9c.05-.14.5.07.5-.5v-1.04h0v-.45s0-.03,0-.04c0,0,0-.01,0-.02,0,0,0-.01,0-.02,0-.08-.01-.14-.02-.18-.02-.05-.05-.12-.11-.19l-.26-.33c.06-.03.13-.06.21-.1.01,0,.03-.02.04-.02.05-.02.09-.05.15-.08.02-.01.04-.02.06-.04.19-.11.47-.28.84-.51h0s0,0,0,0v.56c.53-.35.86-.56,1.34-.56.45,0,.83.27.83.87v2.16c0,.57.45.37.5.5h-1.9c.05-.14.5.07.5-.5Z"/>
    <path class="cls-1" d="M79.75,51.3h-2.3c.01.93.58,1.39,1.17,1.39.44,0,.68-.16.88-.4.15-.18.14-.3.21-.3.02,0,.04.02.04.05,0,.23-.33,1.24-1.52,1.24-.97,0-1.6-.73-1.6-1.81,0-1.01.68-1.77,1.6-1.77.81,0,1.49.55,1.52,1.6ZM78.88,51.27c0-1.13-.23-1.55-.65-1.55-.46,0-.77.75-.79,1.55h1.44Z"/>
  </g>
  <g>
    <path class="cls-1" d="M12.31,70.35h-6.56c.22-.37,1.76.21,1.76-1.33v-10.77c0-1.55-1.55-.95-1.76-1.33h10.87l.88,4.31c-.19,0-.17-.35-.98-1.71-.98-1.62-2.33-2.47-4.83-2.47h-1.14v5.99h.52c1.46,0,2.52-1.08,2.6-2.58.01-.33.06-.47.18-.51v6.92c-.12-.04-.17-.17-.18-.5-.09-1.85-1.15-3.15-2.6-3.15h-.52v5.81c0,1.54,1.54.96,1.76,1.33Z"/>
    <path class="cls-1" d="M32.72,70.35h-4.81l-2.36-4.9c-.5-1.03-1.48-1.46-2.68-1.46v5.04c0,1.54,1.54.95,1.76,1.32h-6.56c.22-.37,1.76.21,1.76-1.32v-10.71c0-1.63-1.73-.87-1.78-1.4h1.93c.49.01.94.02,1.36.02,1.04,0,1.94-.04,3.31-.04,3.56,0,5.46,1.3,5.46,3.41,0,1.74-1.08,3.18-5.36,3.64v.04c2.23,0,3.43.54,4.24,2.09l1.56,3c.76,1.45,1.93.99,2.18,1.28ZM23.68,63.87c2.35,0,3.39-1.33,3.39-3.52s-1.12-3.23-2.89-3.23h-1.31v6.75h.81Z"/>
    <path class="cls-1" d="M48.99,70.35h-5.83c.38-.13,1.29-.03,1.29-.93,0-.67-.37-1.23-1.5-4.05h-5.05c-.39,1.11-.87,2.04-.87,3.08,0,1.42,1.29,1.7,1.77,1.9h-4.84c.07-.03.17-.07.32-.1,1.39-.31,2.35-2.08,3.1-4.03l2.64-6.84c.09-.23.15-.37.15-.6,0-.24-.19-.38-.36-.48l2.36-2.39c.04.09.08.19.12.3l5.26,12.81c.45,1.08,1.06,1.26,1.43,1.35ZM42.85,65.21l-2.53-6.2-2.35,6.2h4.88Z"/>
    <path class="cls-1" d="M65.56,65.28l-.72,5.07h-11.19c.22-.37,1.76.21,1.76-1.33v-10.77c0-1.55-1.55-.95-1.76-1.33h6.56c-.21.38-1.76-.22-1.76,1.33v10.52c0,.95.38,1.46,1.71,1.46,2.45,0,4.31-1.96,5.07-4.37.13-.4.15-.58.33-.58Z"/>
    <path class="cls-1" d="M79.75,65.28l-.71,5.07h-11.76c.22-.37,1.76.21,1.76-1.33v-10.77c0-1.55-1.55-.95-1.76-1.33h10.85l.88,4.31c-.19,0-.17-.35-.98-1.71-.98-1.62-2.33-2.47-4.82-2.47h-1.12v5.99h.52c1.46,0,2.52-1.08,2.6-2.58.01-.31.06-.45.16-.5v6.9c-.11-.05-.15-.18-.16-.5-.09-1.85-1.14-3.18-2.59-3.18h-.52v5.59c0,.95.37,1.46,1.7,1.46,3.25,0,4.99-2.31,5.64-4.37.13-.4.15-.58.33-.58Z"/>
    <path class="cls-1" d="M89.95,70.79c-2.06,0-3.04-.92-3.85-.92s-.69.68-1.04.68l.04-6.06c.21,0,.21.3.29.72.5,2.55,1.55,5.43,4.59,5.43,2.12,0,3.32-1.38,3.32-2.93,0-4.05-8.32-2.07-8.32-7.04,0-2.37,2.08-4.13,4.66-4.13,1.95,0,2.99.8,3.58.8.73,0,.42-.56.79-.56l.52,5.02c-.21,0-.23-.42-.56-1.22-.92-2.23-2.07-3.91-4.37-3.91-1.48,0-2.61.98-2.61,2.5,0,3.29,8.44,1.46,8.44,6.9,0,2.67-2.33,4.72-5.47,4.72Z"/>
    <path class="cls-1" d="M106.53,70.35h-7.05c.05-.09.16-.12.34-.12,1.02,0,1.66-.29,1.66-1.62v-11.52c-4.12,1.13-4.32,4.33-4.8,4.33l.56-4.5h11.53l.56,4.5c-.48,0-.69-3.2-4.8-4.33v11.52c0,1.33.64,1.62,1.66,1.62.18,0,.29.03.34.12Z"/>
    <path class="cls-1" d="M122.63,65.28l-.71,5.07h-11.76c.22-.37,1.76.21,1.76-1.33v-10.77c0-1.55-1.55-.95-1.76-1.33h10.85l.88,4.31c-.19,0-.17-.35-.98-1.71-.98-1.62-2.33-2.47-4.82-2.47h-1.12v5.99h.52c1.46,0,2.52-1.08,2.6-2.58.01-.31.06-.45.16-.5v6.9c-.11-.05-.15-.18-.16-.5-.09-1.85-1.14-3.18-2.59-3.18h-.52v5.59c0,.95.37,1.46,1.7,1.46,3.24,0,4.99-2.31,5.64-4.37.13-.4.15-.58.33-.58Z"/>
    <path class="cls-1" d="M135.82,65.28l-.72,5.07h-11.19c.22-.37,1.76.21,1.76-1.33v-10.77c0-1.55-1.55-.95-1.76-1.33h6.56c-.21.38-1.76-.22-1.76,1.33v10.52c0,.95.38,1.46,1.71,1.46,2.45,0,4.3-1.96,5.07-4.37.13-.4.15-.58.33-.58Z"/>
    <path class="cls-1" d="M149.45,65.28l-.72,5.07h-11.19c.22-.37,1.76.21,1.76-1.33v-10.77c0-1.55-1.55-.95-1.76-1.33h6.56c-.21.38-1.76-.22-1.76,1.33v10.52c0,.95.38,1.46,1.71,1.46,2.45,0,4.3-1.96,5.07-4.37.13-.4.15-.58.33-.58Z"/>
    <path class="cls-1" d="M163.64,65.28l-.71,5.07h-11.76c.22-.37,1.76.21,1.76-1.33v-10.77c0-1.55-1.55-.95-1.76-1.33h10.85l.88,4.31c-.19,0-.17-.35-.98-1.71-.98-1.62-2.33-2.47-4.82-2.47h-1.12v5.99h.52c1.46,0,2.52-1.08,2.6-2.58.01-.31.06-.45.16-.5v6.9c-.11-.05-.15-.18-.16-.5-.09-1.85-1.14-3.18-2.59-3.18h-.52v5.59c0,.95.37,1.46,1.7,1.46,3.24,0,4.99-2.31,5.64-4.37.13-.4.15-.58.33-.58Z"/>
  </g>
  <g>
    <path class="cls-1" d="M181.76,51.21c.79-1.18,1.25-2.61,1.25-4.14h0c0,2.19.95,4.17,2.45,5.53-.22-4.34-1.2-8.74-3.04-13.04-5.41-12.93-18.48-22.23-32.51-22.58-1.24-.02-2.47,0-3.7.09,2.44.22,4.85.59,7.22,1.21,15.7,4.03,26.91,17.45,28.33,32.92Z"/>
    <path class="cls-1" d="M183.01,62.02h0c0-1.53-.46-2.95-1.25-4.13-.11,1.22-.28,2.44-.52,3.66-3.19,16.97-17.93,29.32-35.03,30.52,21.74,1.41,38.21-15.87,39.25-35.58-1.5,1.37-2.45,3.34-2.45,5.53Z"/>
  </g>
  <path class="cls-1" d="M183.01,58.67h0c0-2.28-1.84-4.12-4.12-4.12h0c2.28,0,4.12-1.84,4.12-4.12h0c0,2.28,1.84,4.12,4.12,4.12h0c-2.28,0-4.12,1.84-4.12,4.12Z"/>
</svg>