<svg width="370" height="370" xmlns="http://www.w3.org/2000/svg" viewBox="0 0 37 37" shape-rendering="crispEdges">
<rect x="0" y="0" width="37" height="37" fill="#ffffff"></rect>
<g fill="#000000">
<rect x="4" y="4" width="7" height="1"></rect>
<rect x="15" y="4" width="1" height="1"></rect>
<rect x="17" y="4" width="2" height="1"></rect>
<rect x="20" y="4" width="1" height="1"></rect>
<rect x="22" y="4" width="3" height="1"></rect>
<rect x="26" y="4" width="7" height="1"></rect>
<rect x="4" y="5" width="1" height="1"></rect>
<rect x="10" y="5" width="1" height="1"></rect>
<rect x="13" y="5" width="3" height="1"></rect>
<rect x="18" y="5" width="5" height="1"></rect>
<rect x="26" y="5" width="1" height="1"></rect>
<rect x="32" y="5" width="1" height="1"></rect>
<rect x="4" y="6" width="1" height="1"></rect>
<rect x="6" y="6" width="3" height="1"></rect>
<rect x="10" y="6" width="1" height="1"></rect>
<rect x="12" y="6" width="2" height="1"></rect>
<rect x="17" y="6" width="1" height="1"></rect>
<rect x="23" y="6" width="2" height="1"></rect>
<rect x="26" y="6" width="1" height="1"></rect>
<rect x="28" y="6" width="3" height="1"></rect>
<rect x="32" y="6" width="1" height="1"></rect>
<rect x="4" y="7" width="1" height="1"></rect>
<rect x="6" y="7" width="3" height="1"></rect>
<rect x="10" y="7" width="1" height="1"></rect>
<rect x="12" y="7" width="2" height="1"></rect>
<rect x="15" y="7" width="1" height="1"></rect>
<rect x="18" y="7" width="1" height="1"></rect>
<rect x="21" y="7" width="1" height="1"></rect>
<rect x="23" y="7" width="1" height="1"></rect>
<rect x="26" y="7" width="1" height="1"></rect>
<rect x="28" y="7" width="3" height="1"></rect>
<rect x="32" y="7" width="1" height="1"></rect>
<rect x="4" y="8" width="1" height="1"></rect>
<rect x="6" y="8" width="3" height="1"></rect>
<rect x="10" y="8" width="1" height="1"></rect>
<rect x="12" y="8" width="12" height="1"></rect>
<rect x="26" y="8" width="1" height="1"></rect>
<rect x="28" y="8" width="3" height="1"></rect>
<rect x="32" y="8" width="1" height="1"></rect>
<rect x="4" y="9" width="1" height="1"></rect>
<rect x="10" y="9" width="1" height="1"></rect>
<rect x="12" y="9" width="2" height="1"></rect>
<rect x="16" y="9" width="1" height="1"></rect>
<rect x="18" y="9" width="1" height="1"></rect>
<rect x="20" y="9" width="2" height="1"></rect>
<rect x="26" y="9" width="1" height="1"></rect>
<rect x="32" y="9" width="1" height="1"></rect>
<rect x="4" y="10" width="7" height="1"></rect>
<rect x="12" y="10" width="1" height="1"></rect>
<rect x="14" y="10" width="1" height="1"></rect>
<rect x="16" y="10" width="1" height="1"></rect>
<rect x="18" y="10" width="1" height="1"></rect>
<rect x="20" y="10" width="1" height="1"></rect>
<rect x="22" y="10" width="1" height="1"></rect>
<rect x="24" y="10" width="1" height="1"></rect>
<rect x="26" y="10" width="7" height="1"></rect>
<rect x="12" y="11" width="2" height="1"></rect>
<rect x="15" y="11" width="1" height="1"></rect>
<rect x="23" y="11" width="1" height="1"></rect>
<rect x="4" y="12" width="1" height="1"></rect>
<rect x="6" y="12" width="5" height="1"></rect>
<rect x="18" y="12" width="1" height="1"></rect>
<rect x="21" y="12" width="1" height="1"></rect>
<rect x="24" y="12" width="1" height="1"></rect>
<rect x="26" y="12" width="5" height="1"></rect>
<rect x="4" y="13" width="3" height="1"></rect>
<rect x="8" y="13" width="1" height="1"></rect>
<rect x="11" y="13" width="3" height="1"></rect>
<rect x="19" y="13" width="8" height="1"></rect>
<rect x="28" y="13" width="1" height="1"></rect>
<rect x="32" y="13" width="1" height="1"></rect>
<rect x="6" y="14" width="1" height="1"></rect>
<rect x="8" y="14" width="7" height="1"></rect>
<rect x="16" y="14" width="1" height="1"></rect>
<rect x="19" y="14" width="1" height="1"></rect>
<rect x="24" y="14" width="1" height="1"></rect>
<rect x="26" y="14" width="2" height="1"></rect>
<rect x="4" y="15" width="5" height="1"></rect>
<rect x="12" y="15" width="2" height="1"></rect>
<rect x="15" y="15" width="1" height="1"></rect>
<rect x="24" y="15" width="3" height="1"></rect>
<rect x="29" y="15" width="1" height="1"></rect>
<rect x="31" y="15" width="1" height="1"></rect>
<rect x="4" y="16" width="1" height="1"></rect>
<rect x="6" y="16" width="1" height="1"></rect>
<rect x="10" y="16" width="1" height="1"></rect>
<rect x="13" y="16" width="1" height="1"></rect>
<rect x="19" y="16" width="4" height="1"></rect>
<rect x="29" y="16" width="2" height="1"></rect>
<rect x="4" y="17" width="1" height="1"></rect>
<rect x="6" y="17" width="2" height="1"></rect>
<rect x="12" y="17" width="1" height="1"></rect>
<rect x="16" y="17" width="2" height="1"></rect>
<rect x="19" y="17" width="6" height="1"></rect>
<rect x="26" y="17" width="3" height="1"></rect>
<rect x="32" y="17" width="1" height="1"></rect>
<rect x="4" y="18" width="1" height="1"></rect>
<rect x="7" y="18" width="5" height="1"></rect>
<rect x="13" y="18" width="3" height="1"></rect>
<rect x="17" y="18" width="2" height="1"></rect>
<rect x="20" y="18" width="2" height="1"></rect>
<rect x="24" y="18" width="2" height="1"></rect>
<rect x="29" y="18" width="2" height="1"></rect>
<rect x="5" y="19" width="1" height="1"></rect>
<rect x="8" y="19" width="1" height="1"></rect>
<rect x="11" y="19" width="2" height="1"></rect>
<rect x="14" y="19" width="1" height="1"></rect>
<rect x="16" y="19" width="2" height="1"></rect>
<rect x="20" y="19" width="1" height="1"></rect>
<rect x="23" y="19" width="2" height="1"></rect>
<rect x="26" y="19" width="2" height="1"></rect>
<rect x="31" y="19" width="1" height="1"></rect>
<rect x="4" y="20" width="1" height="1"></rect>
<rect x="7" y="20" width="1" height="1"></rect>
<rect x="9" y="20" width="3" height="1"></rect>
<rect x="13" y="20" width="1" height="1"></rect>
<rect x="15" y="20" width="1" height="1"></rect>
<rect x="18" y="20" width="4" height="1"></rect>
<rect x="29" y="20" width="2" height="1"></rect>
<rect x="4" y="21" width="1" height="1"></rect>
<rect x="8" y="21" width="2" height="1"></rect>
<rect x="11" y="21" width="1" height="1"></rect>
<rect x="13" y="21" width="4" height="1"></rect>
<rect x="22" y="21" width="3" height="1"></rect>
<rect x="26" y="21" width="3" height="1"></rect>
<rect x="30" y="21" width="1" height="1"></rect>
<rect x="32" y="21" width="1" height="1"></rect>
<rect x="4" y="22" width="1" height="1"></rect>
<rect x="6" y="22" width="1" height="1"></rect>
<rect x="9" y="22" width="5" height="1"></rect>
<rect x="19" y="22" width="1" height="1"></rect>
<rect x="21" y="22" width="2" height="1"></rect>
<rect x="25" y="22" width="1" height="1"></rect>
<rect x="27" y="22" width="2" height="1"></rect>
<rect x="30" y="22" width="1" height="1"></rect>
<rect x="4" y="23" width="1" height="1"></rect>
<rect x="6" y="23" width="2" height="1"></rect>
<rect x="11" y="23" width="1" height="1"></rect>
<rect x="13" y="23" width="4" height="1"></rect>
<rect x="18" y="23" width="2" height="1"></rect>
<rect x="22" y="23" width="4" height="1"></rect>
<rect x="31" y="23" width="1" height="1"></rect>
<rect x="4" y="24" width="1" height="1"></rect>
<rect x="7" y="24" width="1" height="1"></rect>
<rect x="9" y="24" width="3" height="1"></rect>
<rect x="15" y="24" width="2" height="1"></rect>
<rect x="19" y="24" width="3" height="1"></rect>
<rect x="23" y="24" width="6" height="1"></rect>
<rect x="30" y="24" width="3" height="1"></rect>
<rect x="12" y="25" width="2" height="1"></rect>
<rect x="17" y="25" width="3" height="1"></rect>
<rect x="21" y="25" width="2" height="1"></rect>
<rect x="24" y="25" width="1" height="1"></rect>
<rect x="28" y="25" width="5" height="1"></rect>
<rect x="4" y="26" width="7" height="1"></rect>
<rect x="14" y="26" width="1" height="1"></rect>
<rect x="17" y="26" width="5" height="1"></rect>
<rect x="23" y="26" width="2" height="1"></rect>
<rect x="26" y="26" width="1" height="1"></rect>
<rect x="28" y="26" width="3" height="1"></rect>
<rect x="4" y="27" width="1" height="1"></rect>
<rect x="10" y="27" width="1" height="1"></rect>
<rect x="12" y="27" width="1" height="1"></rect>
<rect x="16" y="27" width="2" height="1"></rect>
<rect x="20" y="27" width="1" height="1"></rect>
<rect x="23" y="27" width="2" height="1"></rect>
<rect x="28" y="27" width="1" height="1"></rect>
<rect x="32" y="27" width="1" height="1"></rect>
<rect x="4" y="28" width="1" height="1"></rect>
<rect x="6" y="28" width="3" height="1"></rect>
<rect x="10" y="28" width="1" height="1"></rect>
<rect x="12" y="28" width="5" height="1"></rect>
<rect x="18" y="28" width="1" height="1"></rect>
<rect x="21" y="28" width="1" height="1"></rect>
<rect x="24" y="28" width="5" height="1"></rect>
<rect x="30" y="28" width="1" height="1"></rect>
<rect x="32" y="28" width="1" height="1"></rect>
<rect x="4" y="29" width="1" height="1"></rect>
<rect x="6" y="29" width="3" height="1"></rect>
<rect x="10" y="29" width="1" height="1"></rect>
<rect x="12" y="29" width="1" height="1"></rect>
<rect x="14" y="29" width="1" height="1"></rect>
<rect x="17" y="29" width="1" height="1"></rect>
<rect x="21" y="29" width="3" height="1"></rect>
<rect x="29" y="29" width="2" height="1"></rect>
<rect x="4" y="30" width="1" height="1"></rect>
<rect x="6" y="30" width="3" height="1"></rect>
<rect x="10" y="30" width="1" height="1"></rect>
<rect x="12" y="30" width="3" height="1"></rect>
<rect x="16" y="30" width="2" height="1"></rect>
<rect x="19" y="30" width="3" height="1"></rect>
<rect x="24" y="30" width="1" height="1"></rect>
<rect x="26" y="30" width="6" height="1"></rect>
<rect x="4" y="31" width="1" height="1"></rect>
<rect x="10" y="31" width="1" height="1"></rect>
<rect x="14" y="31" width="1" height="1"></rect>
<rect x="16" y="31" width="1" height="1"></rect>
<rect x="18" y="31" width="1" height="1"></rect>
<rect x="24" y="31" width="2" height="1"></rect>
<rect x="28" y="31" width="2" height="1"></rect>
<rect x="31" y="31" width="1" height="1"></rect>
<rect x="4" y="32" width="7" height="1"></rect>
<rect x="12" y="32" width="1" height="1"></rect>
<rect x="14" y="32" width="4" height="1"></rect>
<rect x="21" y="32" width="1" height="1"></rect>
<rect x="23" y="32" width="1" height="1"></rect>
<rect x="25" y="32" width="3" height="1"></rect>
<rect x="30" y="32" width="1" height="1"></rect>
</g>
</svg>