<svg width="64" height="64" viewBox="0 0 64 64" fill="none" xmlns="http://www.w3.org/2000/svg">
<g clip-path="url(#clip0_1712_5587)">
<path d="M32 64C49.6731 64 64 49.6731 64 32C64 14.3269 49.6731 0 32 0C14.3269 0 0 14.3269 0 32C0 49.6731 14.3269 64 32 64Z" fill="#3B3273"/>
<path d="M31.1792 26.1741C32.5855 24.0751 33.4043 21.5315 33.4043 18.8099C33.4043 22.7055 35.0954 26.2275 37.7656 28.6466C37.3739 20.9267 35.6294 13.1 32.3541 5.45118C22.7238 -17.5486 -0.541881 -34.0914 -25.5165 -34.714C-27.7238 -34.7495 -29.9133 -34.714 -32.1028 -34.5539C-27.7594 -34.1625 -23.4694 -33.5044 -19.2506 -32.4015C8.69674 -25.233 28.6515 -1.3616 31.1792 26.1563V26.1741Z" fill="white"/>
<path d="M33.4043 45.4041C33.4043 42.6826 32.5855 40.1567 31.1792 38.0577C30.9834 40.2278 30.6808 42.3979 30.2536 44.5681C24.5751 74.7542 -1.66333 96.7223 -32.1028 98.8568C6.59627 101.365 35.9143 70.6274 37.7656 35.5674C35.0954 38.0043 33.4043 41.5085 33.4043 45.4041Z" fill="white"/>
<path d="M33.4043 39.4434C33.4043 35.3877 30.1289 32.1148 26.0703 32.1148C30.1289 32.1148 33.4043 28.8418 33.4043 24.7861C33.4043 28.8418 36.6796 32.1148 40.7382 32.1148C36.6796 32.1148 33.4043 35.3877 33.4043 39.4434Z" fill="white"/>
</g>
<defs>
<clipPath id="clip0_1712_5587">
<rect width="64" height="64" fill="white"/>
</clipPath>
</defs>
</svg>
