<svg width="361" height="162" viewBox="70 76 361 162" fill="none" xmlns="http://www.w3.org/2000/svg">
<path d="M404.081 174.151V154.901C404.081 150.001 403.731 145.101 402.682 140.201C401.632 135.651 397.435 127.951 384.493 126.201C382.045 126.201 379.596 126.201 376.798 126.201C372.601 126.201 368.054 127.251 364.206 128.651C356.861 131.801 351.964 139.501 352.314 147.551H366.655C366.305 143.701 368.753 140.201 372.251 138.801C373.65 138.101 375.399 137.751 377.148 137.751C380.646 137.401 384.144 138.451 386.592 140.901C388.341 142.651 388.691 144.751 388.341 146.851C387.292 150.701 383.444 151.751 377.148 152.801C375.049 153.151 372.601 153.151 370.152 153.501C362.807 154.551 351.964 158.051 349.515 168.901C348.466 175.551 350.915 182.201 355.811 186.051C360.359 189.201 365.605 190.951 371.202 190.951C373.3 190.951 375.399 190.951 377.148 190.251C381.695 189.201 385.892 187.101 389.74 183.951C390.09 185.701 390.789 187.451 391.489 189.201H406.529C404.431 184.301 403.731 179.051 404.081 174.151ZM387.991 171.701C385.892 176.251 381.345 179.051 376.448 179.051C375.399 179.401 374 179.401 372.951 179.051C369.803 179.051 366.655 177.301 365.255 174.501C364.206 172.401 364.206 169.601 365.605 167.501C367.704 163.651 371.551 162.951 376.798 161.901C378.547 161.551 380.296 161.201 382.045 160.851C384.493 160.501 386.942 159.451 388.691 157.701C389.04 162.601 388.691 167.151 387.991 171.701Z" fill="#003247"/>
<path d="M318.735 151.75C313.838 150.7 308.242 150.7 305.443 147.55C304.394 146.15 304.044 144.05 304.744 142.3C307.192 138.45 311.739 136.7 316.286 137.4C320.134 137.4 323.982 139.5 325.731 143C326.43 144.4 326.78 146.15 326.78 147.55H340.071C340.071 142.3 338.323 137.4 334.825 133.55C327.829 127.6 318.385 124.8 309.291 126.55C302.995 127.6 294.25 131.1 291.452 139.5C289.004 146.15 290.753 153.5 296.349 158.05C302.295 162.6 313.838 164 318.385 165.05C323.632 166.1 326.43 166.8 327.13 169.95C327.829 172.05 327.479 174.15 326.43 175.9C322.932 180.45 316.286 180.8 310.69 179.05C306.143 177.65 304.044 173.8 303.345 168.9H289.354C289.354 173.1 290.753 176.95 293.201 180.45C296.699 186.05 302.645 189.55 309.291 190.25C316.986 191.65 324.681 190.95 331.677 187.8C334.475 186.05 336.923 183.95 339.022 181.15C343.219 175.2 343.569 167.15 340.071 160.85C335.874 154.55 326.78 153.15 318.735 151.75Z" fill="#003247"/>
<path d="M272.914 135.301C266.268 128.301 256.824 125.151 247.38 126.901C238.985 127.951 231.64 132.851 227.443 140.201C225.344 144.051 223.595 148.601 222.895 153.151C221.496 164.001 224.295 182.201 243.532 189.551C253.326 193.051 263.82 191.301 272.214 185.351C277.461 181.151 280.959 175.201 282.008 168.901H266.268C265.568 171.701 263.82 174.151 261.721 175.901C256.474 179.401 249.828 179.051 244.931 175.201C240.035 171.701 238.286 165.751 238.286 157.351C238.286 152.801 239.685 145.801 243.183 142.301C247.03 139.151 252.277 138.101 257.174 139.501C262.42 141.251 265.918 146.501 265.918 152.101H243.183V163.301H282.008C282.358 159.451 282.008 155.251 280.959 151.401C279.56 145.451 276.761 139.851 272.914 135.301Z" fill="#003247"/>
<path d="M171.275 192.7C146.091 183.95 141.544 160.5 147.84 144.4C154.136 129.35 171.275 122.35 186.315 128.65C188.064 129.35 189.813 130.4 191.562 131.45C206.952 142.3 205.204 163.3 205.204 163.3H165.679V152.1H188.414C188.764 148.95 187.365 145.8 185.266 143.7C181.069 138.8 174.073 137.75 168.477 140.9C163.93 143.35 158.333 152.8 161.831 166.8C164.979 177.3 174.773 181.5 183.867 181.5C197.159 181.5 207.302 172.4 207.302 157C207.302 126.2 182.468 101 151.338 101C120.207 101 95.0232 125.85 95.0232 157C95.0232 188.15 119.857 213 150.988 213C167.427 213 183.167 205.65 193.661 193.4C186.315 195.5 178.62 195.15 171.275 192.7ZM121.956 164C118.458 164 115.66 161.2 115.66 157.7C115.66 154.2 118.458 151.4 121.956 151.4C125.454 151.4 128.252 154.2 128.252 157.7C128.252 161.2 125.454 164 121.956 164Z" fill="#003247"/>
</svg>
