<svg width="217" height="66" viewBox="0 0 217 66" fill="none" xmlns="http://www.w3.org/2000/svg">
<g clip-path="url(#clip0_1738_5413)">
<path d="M6.8 30.4C6.5 30.4 6.2 30.5 6 30.8C5.8 31.1 5.7 31.4 5.7 31.7V40.7C5.7 41.1 5.6 41.4 5.3 41.7C5 42 4.6 42.2 4.2 42.2H1.5C1.1 42.2 0.7 42 0.4 41.7C0.1 41.4 0 41.1 0 40.7V1.5C0 1 0.1 0.7 0.4 0.4C0.7 0.1 1.1 0 1.5 0H8.4C11.4 0 14.2 0.3 16.9 0.8C19.5 1.3 21.8 2.2 23.8 3.3C25.8 4.5 27.3 6.1 28.5 8C29.6 10 30.2 12.4 30.2 15.2C30.2 18 29.7 20.3 28.6 22.2C27.5 24.1 26 25.6 24.1 26.8C23.5 27.4 23.1 27.8 22.9 28.2C22.7 28.6 22.8 29.2 23.1 30L28.1 40.3C28.3 40.8 28.4 41.2 28.3 41.6C28.2 42 27.9 42.2 27.2 42.2H23.8C23.3 42.2 22.9 42.1 22.7 41.9C22.5 41.7 22.3 41.5 22.2 41.3L17 30.5C16.6 30 16 29.8 15 29.9C13.9 30 12.8 30.1 11.7 30.2C10.6 30.3 9.5 30.3 8.3 30.3H6.8V30.4ZM7 5.7C6.7 5.7 6.4 5.8 6.1 6.1C5.8 6.4 5.7 6.6 5.7 7V23.3C5.7 23.7 5.8 24.1 6 24.4C6.2 24.7 6.5 24.8 6.9 24.8H8.4C10.6 24.8 12.7 24.6 14.7 24.3C16.6 24 18.3 23.4 19.8 22.7C21.2 22 22.4 21 23.2 19.8C24 18.6 24.5 17.1 24.5 15.3C24.5 13.5 24.1 12 23.2 10.8C22.4 9.6 21.2 8.6 19.8 7.8C18.4 7 16.7 6.5 14.7 6.2C12.8 5.9 10.7 5.7 8.4 5.7H7Z" fill="white"/>
<path d="M32.5999 30.2002C32.2999 28.4002 32.3999 26.5002 32.8999 24.7002C33.2999 22.9002 34.0999 21.2002 35.0999 19.7002C36.0999 18.2002 37.3999 17.0002 38.9999 16.0002C40.5999 15.0002 42.2999 14.4002 44.2999 14.1002C46.5999 13.8002 48.8999 14.0002 50.9999 14.8002C53.0999 15.6002 54.8999 16.8002 56.3999 18.5002C58.2999 20.7002 59.3999 23.3002 59.8999 26.4002C59.9999 26.9002 59.8999 27.2002 59.5999 27.5002C59.3999 27.8002 58.9999 28.0002 58.6999 28.0002L39.0999 31.0002C38.8999 31.0002 38.7999 31.1002 38.6999 31.3002C38.5999 31.5002 38.6999 31.7002 38.6999 31.8002C39.3999 33.7002 40.6999 35.1002 42.3999 35.9002C44.1999 36.8002 46.0999 37.1002 48.0999 36.8002C49.5999 36.6002 50.8999 36.1002 51.9999 35.3002C53.0999 34.5002 53.9999 33.5002 54.5999 32.3002C54.8999 31.8002 55.1999 31.5002 55.5999 31.5002C55.9999 31.5002 56.3999 31.6002 56.7999 31.9002L58.9999 33.1002C59.3999 33.3002 59.6999 33.7002 59.7999 34.1002C59.8999 34.5002 59.7999 34.9002 59.6999 35.3002C58.6999 37.3002 57.1999 38.9002 55.2999 40.1002C53.3999 41.3002 51.2999 42.2002 48.7999 42.5002C46.7999 42.8002 44.8999 42.7002 43.0999 42.2002C41.2999 41.7002 39.5999 41.0002 38.1999 39.9002C36.6999 38.8002 35.4999 37.5002 34.4999 35.8002C33.5999 34.2002 32.8999 32.3002 32.5999 30.2002ZM51.8999 23.5002C52.5999 23.4002 52.7999 23.1002 52.4999 22.5002C51.7999 21.2002 50.7999 20.4002 49.3999 20.0002C47.9999 19.6002 46.5999 19.5002 45.0999 19.6002C43.6999 19.9002 42.2999 20.4002 41.0999 21.2002C39.8999 22.0002 39.0999 23.0002 38.6999 24.4002C38.5999 24.6002 38.6999 24.8002 38.7999 25.0002C38.9999 25.2002 39.1999 25.2002 39.4999 25.2002L51.8999 23.5002Z" fill="white"/>
<path d="M70.7001 40.7C70.7001 41.1 70.6001 41.4 70.3001 41.7C70.0001 42 69.7001 42.2 69.2001 42.2H66.6001C66.2001 42.2 65.8001 42 65.5001 41.7C65.2001 41.4 65.1001 41.1 65.1001 40.7L66.3001 1.5C66.3001 1 66.4001 0.7 66.7001 0.4C67.0001 0.1 67.3001 0 67.8001 0H70.5001C71.2001 0 71.7001 0.3 71.9001 1L84.2001 30.5C84.3001 30.8 84.5001 31.1 84.7001 31.2C84.9001 31.3 85.1001 31.4 85.3001 31.4C85.5001 31.4 85.7001 31.3 85.8001 31.2C86.0001 31.1 86.1001 30.9 86.2001 30.8L98.4001 1C98.7001 0.3 99.2001 0 99.9001 0H102.5C103 0 103.3 0.1 103.6 0.4C103.9 0.7 104 1.1 104 1.5L105.2 40.7C105.2 41.1 105.1 41.4 104.8 41.7C104.5 42 104.2 42.2 103.7 42.2H101C100.6 42.2 100.2 42 99.9001 41.7C99.6001 41.4 99.5001 41.1 99.5001 40.7L98.8001 19.3C98.8001 18.6 98.5001 18.2 98.1001 18.2C97.7001 18.2 97.3001 18.5 97.0001 19.2L87.9001 41.3C87.8001 41.6 87.5001 41.8 87.2001 42C86.9001 42.2 86.5001 42.2 86.1001 42.2H84.1001C83.7001 42.2 83.4001 42.1 83.0001 42C82.7001 41.8 82.5001 41.6 82.3001 41.3L73.0001 18.9C72.8001 18.3 72.5001 18.1 72.0001 18.3C71.6001 18.5 71.3001 19 71.2001 19.8L70.7001 40.7Z" fill="white"/>
<path d="M110.4 30.2002C110.1 28.4002 110.2 26.5002 110.7 24.7002C111.1 22.9002 111.9 21.2002 112.9 19.7002C113.9 18.2002 115.2 17.0002 116.8 16.0002C118.4 15.0002 120.1 14.4002 122.1 14.1002C124.4 13.8002 126.7 14.0002 128.8 14.8002C130.9 15.6002 132.7 16.8002 134.2 18.5002C136.1 20.7002 137.2 23.3002 137.7 26.4002C137.8 26.9002 137.7 27.2002 137.4 27.5002C137.2 27.8002 136.8 28.0002 136.5 28.0002L116.9 31.0002C116.7 31.0002 116.6 31.1002 116.5 31.3002C116.5 31.5002 116.5 31.7002 116.5 31.8002C117.2 33.7002 118.5 35.1002 120.2 35.9002C122 36.8002 123.9 37.1002 125.9 36.8002C127.4 36.6002 128.7 36.1002 129.8 35.3002C130.9 34.5002 131.8 33.5002 132.4 32.3002C132.7 31.8002 133 31.5002 133.4 31.5002C133.8 31.5002 134.2 31.6002 134.6 31.9002L136.8 33.1002C137.2 33.3002 137.5 33.7002 137.6 34.1002C137.7 34.5002 137.6 34.9002 137.5 35.3002C136.5 37.3002 135 38.9002 133.1 40.1002C131.2 41.3002 129.1 42.2002 126.6 42.5002C124.6 42.8002 122.7 42.7002 120.9 42.2002C119.1 41.7002 117.4 41.0002 116 39.9002C114.5 38.8002 113.3 37.5002 112.3 35.8002C111.4 34.2002 110.7 32.3002 110.4 30.2002ZM129.7 23.5002C130.4 23.4002 130.6 23.1002 130.3 22.5002C129.6 21.2002 128.6 20.4002 127.2 20.0002C125.8 19.6002 124.4 19.5002 122.9 19.6002C121.5 19.9002 120.1 20.4002 118.9 21.2002C117.7 22.0002 116.9 23.0002 116.5 24.4002C116.4 24.6002 116.5 24.8002 116.6 25.0002C116.7 25.2002 117 25.2002 117.3 25.2002L129.7 23.5002Z" fill="white"/>
<path d="M168.9 0C169.3 0 169.7 0.1 170 0.4C170.3 0.7 170.4 1.1 170.4 1.5V40.7C170.4 41.1 170.3 41.4 170 41.7C169.7 42 169.4 42.2 168.9 42.2H166.2C165.8 42.2 165.4 42 165.1 41.7C164.8 41.4 164.7 41.1 164.7 40.7V40.6C164.7 40.3 164.4 40.3 164 40.5C161.7 42 159 42.8 155.9 42.8C153.9 42.8 152 42.4 150.3 41.7C148.5 41 147 40 145.7 38.7C144.4 37.4 143.3 35.9 142.6 34.1C141.8 32.3 141.4 30.3 141.4 28.2C141.4 26.1 141.8 24.1 142.6 22.4C143.4 20.6 144.4 19.1 145.7 17.8C147 16.5 148.5 15.5 150.3 14.8C152.1 14.1 153.9 13.7 155.9 13.7C158.8 13.7 161.4 14.4 163.8 15.9C164.1 16.1 164.4 16.2 164.5 16.1C164.7 16 164.7 15.8 164.7 15.3V1.5C164.7 1 164.8 0.7 165.1 0.4C165.4 0.1 165.7 0 166.2 0L168.9 0ZM147.7 32C148.2 33.1 148.8 34 149.6 34.8C150.4 35.6 151.3 36.1 152.4 36.5C153.5 36.9 154.6 37.1 155.8 37.1C158.3 37.1 160.4 36.3 162.1 34.7C163.8 33.1 164.6 31 164.6 28.2C164.6 26.9 164.4 25.7 163.9 24.6C163.4 23.5 162.8 22.6 162.1 21.9C161.3 21.2 160.4 20.6 159.3 20.2C158.2 19.8 157.1 19.6 155.8 19.6C154.6 19.6 153.5 19.8 152.4 20.2C151.3 20.6 150.4 21.2 149.6 21.9C148.8 22.6 148.2 23.5 147.7 24.6C147.2 25.7 147 26.9 147 28.2C147 29.6 147.2 30.9 147.7 32Z" fill="white"/>
<path d="M176.9 8.5998C176.9 7.7998 177.2 7.0998 177.7 6.5998C178.3 6.0998 178.9 5.7998 179.7 5.7998C180.5 5.7998 181.2 6.0998 181.7 6.5998C182.2 7.0998 182.5 7.7998 182.5 8.5998C182.5 9.3998 182.2 9.9998 181.7 10.5998C181.2 11.1998 180.5 11.3998 179.7 11.3998C178.9 11.3998 178.3 11.0998 177.7 10.5998C177.1 10.0998 176.9 9.3998 176.9 8.5998ZM181.1 14.4998C181.5 14.4998 181.9 14.5998 182.2 14.8998C182.5 15.1998 182.6 15.5998 182.6 15.9998V40.6998C182.6 41.0998 182.5 41.3998 182.2 41.6998C181.9 41.9998 181.6 42.1998 181.1 42.1998H178.4C178 42.1998 177.6 41.9998 177.3 41.6998C177 41.3998 176.9 41.0998 176.9 40.6998V15.9998C176.9 15.4998 177 15.1998 177.3 14.8998C177.6 14.5998 177.9 14.4998 178.4 14.4998H181.1Z" fill="white"/>
<path d="M215.4 14.4996C215.8 14.4996 216.2 14.5996 216.5 14.8996C216.8 15.1996 216.9 15.5996 216.9 15.9996V40.6996C216.9 41.0996 216.8 41.3996 216.5 41.6996C216.2 41.9996 215.9 42.1996 215.4 42.1996H212.8C212.4 42.1996 212 41.9996 211.7 41.6996C211.4 41.3996 211.3 41.0996 211.3 40.6996V40.5996C211.3 40.2996 211 40.1996 210.4 40.4996C209.2 41.0996 207.9 41.6996 206.6 42.0996C205.3 42.4996 203.9 42.6996 202.5 42.6996C200.5 42.6996 198.6 42.2996 196.9 41.5996C195.1 40.8996 193.6 39.8996 192.3 38.5996C191 37.2996 189.9 35.7996 189.2 33.9996C188.4 32.1996 188 30.1996 188 28.0996C188 25.9996 188.4 23.9996 189.2 22.2996C190 20.4996 191 18.9996 192.3 17.6996C193.6 16.3996 195.1 15.3996 196.9 14.6996C198.7 13.9996 200.5 13.5996 202.5 13.5996C203.6 13.5996 204.6 13.6996 205.6 13.9996C206.6 14.1996 207.6 14.4996 208.5 14.8996C209.4 15.1996 210 15.5996 210.5 15.8996C211 16.1996 211.2 16.1996 211.3 15.8996V15.9996C211.3 15.4996 211.4 15.1996 211.7 14.8996C212 14.5996 212.3 14.4996 212.8 14.4996H215.4ZM193.5 28.2996C193.5 29.6996 193.7 30.8996 194.2 31.9996C194.7 33.0996 195.3 33.9996 196.1 34.7996C196.9 35.5996 197.9 36.0996 198.9 36.4996C200 36.8996 201.1 37.0996 202.3 37.0996C203.5 37.0996 204.6 36.8996 205.7 36.4996C206.8 36.0996 207.7 35.4996 208.5 34.7996C209.3 33.9996 209.9 33.0996 210.4 31.9996C210.9 30.8996 211.1 29.6996 211.1 28.2996C211.1 26.9996 210.9 25.7996 210.4 24.6996C209.9 23.5996 209.3 22.6996 208.5 21.9996C207.7 21.2996 206.8 20.6996 205.7 20.2996C204.6 19.8996 203.5 19.6996 202.3 19.6996C201.1 19.6996 200 19.8996 198.9 20.2996C197.8 20.6996 196.9 21.2996 196.1 21.9996C195.3 22.6996 194.6 23.5996 194.2 24.6996C193.7 25.6996 193.5 26.8996 193.5 28.2996Z" fill="white"/>
<path d="M171.4 59.7992C171.4 59.6992 171.3 59.6992 171.1 59.7992C170.7 59.9992 170.3 60.1992 169.8 60.3992C169.3 60.5992 168.8 60.5992 168.3 60.5992C167.6 60.5992 166.9 60.4992 166.3 60.1992C165.7 59.8992 165.1 59.5992 164.6 59.0992C164.1 58.5992 163.8 58.0992 163.5 57.4992C163.2 56.8992 163.1 56.1992 163.1 55.3992C163.1 54.5992 163.2 53.8992 163.5 53.2992C163.8 52.6992 164.2 52.0992 164.6 51.6992C165.1 51.1992 165.6 50.8992 166.3 50.5992C167 50.2992 167.6 50.1992 168.3 50.1992C168.8 50.1992 169.2 50.2992 169.7 50.3992C170.2 50.4992 170.6 50.6992 171 50.8992C171.2 50.9992 171.3 50.9992 171.4 51.0992C171.5 51.0992 171.5 51.0992 171.6 50.9992C171.6 50.8992 171.7 50.6992 171.8 50.5992C171.9 50.4992 172 50.3992 172.2 50.3992H173.2C173.4 50.3992 173.5 50.4992 173.6 50.5992C173.7 50.6992 173.8 50.7992 173.8 50.9992V60.6992C173.8 61.4992 173.7 62.1992 173.4 62.7992C173.1 63.3992 172.7 63.9992 172.3 64.3992C171.8 64.8992 171.3 65.1992 170.7 65.4992C170.1 65.7992 169.4 65.8992 168.7 65.8992C167.8 65.8992 167 65.6992 166.3 65.3992C165.6 64.9992 165 64.4992 164.5 63.8992C164.4 63.7992 164.4 63.5992 164.4 63.4992C164.4 63.3992 164.5 63.1992 164.6 63.0992L165.3 62.4992C165.4 62.3992 165.6 62.2992 165.7 62.2992C165.9 62.2992 166 62.3992 166.1 62.4992C166.4 62.8992 166.8 63.1992 167.2 63.3992C167.6 63.5992 168.1 63.6992 168.7 63.6992C169.1 63.6992 169.5 63.5992 169.9 63.4992C170.3 63.3992 170.6 63.0992 170.9 62.8992C171.2 62.5992 171.4 62.2992 171.6 61.8992C171.8 61.4992 171.9 61.0992 171.9 60.5992V59.7992H171.4ZM165 55.3992C165 55.8992 165.1 56.2992 165.3 56.6992C165.5 57.0992 165.7 57.3992 166 57.6992C166.3 57.9992 166.6 58.1992 167 58.2992C167.4 58.3992 167.8 58.4992 168.2 58.4992C168.6 58.4992 169 58.3992 169.4 58.2992C169.8 58.1992 170.1 57.8992 170.4 57.6992C170.7 57.4992 170.9 57.0992 171.1 56.6992C171.3 56.2992 171.3 55.8992 171.3 55.3992C171.3 54.8992 171.2 54.4992 171.1 54.0992C170.9 53.6992 170.7 53.3992 170.4 53.0992C170.1 52.7992 169.8 52.5992 169.4 52.4992C169 52.3992 168.6 52.2992 168.2 52.2992C167.8 52.2992 167.4 52.3992 167 52.4992C166.6 52.5992 166.3 52.8992 166 53.0992C165.7 53.3992 165.5 53.6992 165.3 54.0992C165.1 54.3992 165 54.8992 165 55.3992Z" fill="white"/>
<path d="M181.2 52.3994C180.7 52.3994 180.3 52.4994 179.8 52.5994C179.4 52.6994 179 52.8994 178.7 53.1994C178.4 53.4994 178.1 53.7994 177.9 54.1994C177.7 54.5994 177.6 55.0994 177.6 55.5994V59.7994C177.6 59.8994 177.5 60.0994 177.4 60.1994C177.3 60.2994 177.2 60.3994 177 60.3994H176C175.8 60.3994 175.7 60.2994 175.6 60.1994C175.5 60.0994 175.4 59.9994 175.4 59.7994V50.9994C175.4 50.7994 175.4 50.6994 175.6 50.5994C175.8 50.4994 175.8 50.3994 176 50.3994H177C177.2 50.3994 177.3 50.3994 177.4 50.5994C177.5 50.7994 177.6 50.7994 177.6 50.9994V51.1994C177.6 51.2994 177.6 51.3994 177.7 51.3994C177.7 51.3994 177.8 51.3994 177.9 51.3994C178 51.3994 178.1 51.2994 178.2 51.1994C178.3 51.0994 178.4 51.0994 178.6 50.9994C179 50.7994 179.5 50.6994 179.9 50.5994C180.3 50.4994 180.8 50.3994 181.3 50.3994C181.4 50.3994 181.6 50.3994 181.7 50.5994C181.8 50.6994 181.9 50.7994 181.9 50.9994V51.9994C181.9 52.1994 181.8 52.2994 181.7 52.3994C181.5 52.3994 181.3 52.3994 181.2 52.3994Z" fill="white"/>
<path d="M182.4 55.3992C182.4 54.5992 182.5 53.8992 182.8 53.2992C183.1 52.6992 183.5 52.0992 183.9 51.6992C184.4 51.1992 184.9 50.8992 185.6 50.5992C186.3 50.2992 186.9 50.1992 187.6 50.1992C188.3 50.1992 189 50.2992 189.6 50.5992C190.2 50.8992 190.8 51.1992 191.3 51.6992C191.8 52.1992 192.1 52.6992 192.4 53.2992C192.7 53.8992 192.8 54.5992 192.8 55.3992C192.8 56.1992 192.7 56.8992 192.4 57.4992C192.1 58.0992 191.8 58.6992 191.3 59.0992C190.8 59.5992 190.3 59.8992 189.6 60.1992C189 60.4992 188.3 60.5992 187.6 60.5992C186.9 60.5992 186.2 60.4992 185.6 60.1992C185 59.8992 184.4 59.5992 183.9 59.0992C183.4 58.5992 183.1 58.0992 182.8 57.4992C182.5 56.7992 182.4 56.0992 182.4 55.3992ZM184.4 55.3992C184.4 55.8992 184.5 56.2992 184.7 56.6992C184.9 57.0992 185.1 57.3992 185.4 57.6992C185.7 57.9992 186 58.1992 186.4 58.2992C186.8 58.3992 187.2 58.4992 187.6 58.4992C188 58.4992 188.4 58.3992 188.8 58.2992C189.2 58.1992 189.5 57.8992 189.8 57.6992C190.1 57.4992 190.3 57.0992 190.5 56.6992C190.7 56.2992 190.7 55.8992 190.7 55.3992C190.7 54.8992 190.6 54.4992 190.5 54.0992C190.3 53.6992 190.1 53.3992 189.8 53.0992C189.5 52.7992 189.2 52.5992 188.8 52.4992C188.4 52.3992 188 52.2992 187.6 52.2992C187.2 52.2992 186.8 52.3992 186.4 52.4992C186 52.5992 185.7 52.8992 185.4 53.0992C185.1 53.3992 184.9 53.6992 184.7 54.0992C184.5 54.3992 184.4 54.8992 184.4 55.3992Z" fill="white"/>
<path d="M196.3 55.3998C196.3 56.3998 196.6 57.0998 197.1 57.6998C197.6 58.2998 198.4 58.4998 199.3 58.4998C200.1 58.4998 200.8 58.1998 201.4 57.6998C202 57.1998 202.3 56.3998 202.3 55.4998V50.8998C202.3 50.7998 202.4 50.5998 202.5 50.4998C202.6 50.3998 202.7 50.2998 202.9 50.2998H203.9C204.1 50.2998 204.2 50.3998 204.3 50.4998C204.4 50.5998 204.5 50.6998 204.5 50.8998V59.7998C204.5 59.9998 204.4 60.0998 204.3 60.1998C204.2 60.2998 204.1 60.3998 203.9 60.3998H202.9C202.8 60.3998 202.6 60.3998 202.5 60.2998C202.4 60.1998 202.3 60.0998 202.3 59.8998C202.3 59.7998 202.3 59.7998 202.2 59.7998H202.1C201.3 60.2998 200.3 60.5998 199.3 60.5998C198.6 60.5998 197.9 60.4998 197.3 60.1998C196.7 59.8998 196.2 59.5998 195.7 59.0998C195.2 58.5998 194.9 58.0998 194.7 57.4998C194.5 56.8998 194.3 56.1998 194.3 55.3998V50.8998C194.3 50.7998 194.3 50.5998 194.5 50.4998C194.6 50.3998 194.7 50.2998 194.9 50.2998H195.9C196.1 50.2998 196.2 50.3998 196.3 50.4998C196.4 50.5998 196.5 50.6998 196.5 50.8998V55.3998H196.3Z" fill="white"/>
<path d="M207 65.5996C206.8 65.5996 206.7 65.4996 206.6 65.3996C206.5 65.2996 206.4 65.1996 206.4 64.9996V50.8996C206.4 50.7996 206.4 50.5996 206.6 50.4996C206.8 50.3996 206.8 50.2996 207 50.2996H208C208.2 50.2996 208.3 50.3996 208.4 50.4996C208.5 50.5996 208.6 50.6996 208.6 50.8996C208.6 50.9996 208.7 50.9996 208.9 50.8996C209.7 50.2996 210.7 50.0996 211.8 50.0996C212.5 50.0996 213.2 50.1996 213.8 50.4996C214.4 50.7996 215 51.0996 215.5 51.5996C216 52.0996 216.3 52.5996 216.6 53.1996C216.9 53.7996 217 54.4996 217 55.2996C217 56.0996 216.9 56.7996 216.6 57.3996C216.3 57.9996 215.9 58.5996 215.5 58.9996C215 59.4996 214.5 59.7996 213.8 60.0996C213.2 60.3996 212.5 60.4996 211.8 60.4996C210.7 60.4996 209.8 60.1996 209 59.6996C208.9 59.5996 208.8 59.5996 208.7 59.5996C208.6 59.5996 208.6 59.6996 208.6 59.8996V64.8996C208.6 65.0996 208.5 65.1996 208.4 65.2996C208.3 65.3996 208.2 65.4996 208 65.4996H207V65.5996ZM214.6 54.0996C214.4 53.6996 214.2 53.3996 213.9 53.0996C213.6 52.7996 213.3 52.5996 212.9 52.4996C212.5 52.3996 212.1 52.2996 211.7 52.2996C210.8 52.2996 210.1 52.5996 209.4 53.0996C208.8 53.6996 208.5 54.3996 208.5 55.3996C208.5 55.8996 208.6 56.2996 208.7 56.6996C208.9 57.0996 209.1 57.3996 209.4 57.6996C209.7 57.9996 210 58.1996 210.4 58.2996C210.8 58.3996 211.2 58.4996 211.7 58.4996C212.1 58.4996 212.5 58.3996 212.9 58.2996C213.3 58.1996 213.6 57.8996 213.9 57.6996C214.2 57.4996 214.4 57.0996 214.6 56.6996C214.8 56.2996 214.9 55.8996 214.9 55.3996C214.8 54.8996 214.7 54.4996 214.6 54.0996Z" fill="white"/>
</g>
<defs>
<clipPath id="clip0_1738_5413">
<rect width="216.9" height="65.8" fill="white"/>
</clipPath>
</defs>
</svg>
