<?xml version="1.0" encoding="utf-8"?>
<!-- Generator: Adobe Illustrator 26.5.0, SVG Export Plug-In . SVG Version: 6.00 Build 0)  -->
<svg version="1.1" id="Livello_1" xmlns="http://www.w3.org/2000/svg" xmlns:xlink="http://www.w3.org/1999/xlink" x="0px" y="0px"
	 viewBox="0 0 216.9 65.8" style="enable-background:new 0 0 216.9 65.8;" xml:space="preserve">
<style type="text/css">
	.st0{fill:#0C1B2C;}
</style>
<g>
	<path class="st0" d="M6.8,30.4c-0.3,0-0.6,0.1-0.8,0.4c-0.2,0.3-0.3,0.6-0.3,0.9v9c0,0.4-0.1,0.7-0.4,1C5,42,4.6,42.2,4.2,42.2H1.5
		c-0.4,0-0.8-0.2-1.1-0.5S0,41.1,0,40.7V1.5C0,1,0.1,0.7,0.4,0.4S1.1,0,1.5,0h6.9c3,0,5.8,0.3,8.5,0.8c2.6,0.5,4.9,1.4,6.9,2.5
		c2,1.2,3.5,2.8,4.7,4.7c1.1,2,1.7,4.4,1.7,7.2s-0.5,5.1-1.6,7c-1.1,1.9-2.6,3.4-4.5,4.6c-0.6,0.6-1,1-1.2,1.4s-0.1,1,0.2,1.8
		l5,10.3c0.2,0.5,0.3,0.9,0.2,1.3c-0.1,0.4-0.4,0.6-1.1,0.6h-3.4c-0.5,0-0.9-0.1-1.1-0.3s-0.4-0.4-0.5-0.6L17,30.5
		c-0.4-0.5-1-0.7-2-0.6c-1.1,0.1-2.2,0.2-3.3,0.3c-1.1,0.1-2.2,0.1-3.4,0.1H6.8V30.4z M7,5.7c-0.3,0-0.6,0.1-0.9,0.4S5.7,6.6,5.7,7
		v16.3c0,0.4,0.1,0.8,0.3,1.1c0.2,0.3,0.5,0.4,0.9,0.4h1.5c2.2,0,4.3-0.2,6.3-0.5c1.9-0.3,3.6-0.9,5.1-1.6c1.4-0.7,2.6-1.7,3.4-2.9
		c0.8-1.2,1.3-2.7,1.3-4.5s-0.4-3.3-1.3-4.5c-0.8-1.2-2-2.2-3.4-3s-3.1-1.3-5.1-1.6c-1.9-0.3-4-0.5-6.3-0.5C8.4,5.7,7,5.7,7,5.7z"/>
	<path class="st0" d="M32.6,30.2c-0.3-1.8-0.2-3.7,0.3-5.5c0.4-1.8,1.2-3.5,2.2-5S37.4,17,39,16c1.6-1,3.3-1.6,5.3-1.9
		c2.3-0.3,4.6-0.1,6.7,0.7c2.1,0.8,3.9,2,5.4,3.7c1.9,2.2,3,4.8,3.5,7.9c0.1,0.5,0,0.8-0.3,1.1C59.4,27.8,59,28,58.7,28l-19.6,3
		c-0.2,0-0.3,0.1-0.4,0.3s0,0.4,0,0.5c0.7,1.9,2,3.3,3.7,4.1c1.8,0.9,3.7,1.2,5.7,0.9c1.5-0.2,2.8-0.7,3.9-1.5c1.1-0.8,2-1.8,2.6-3
		c0.3-0.5,0.6-0.8,1-0.8s0.8,0.1,1.2,0.4l2.2,1.2c0.4,0.2,0.7,0.6,0.8,1s0,0.8-0.1,1.2c-1,2-2.5,3.6-4.4,4.8s-4,2.1-6.5,2.4
		c-2,0.3-3.9,0.2-5.7-0.3s-3.5-1.2-4.9-2.3c-1.5-1.1-2.7-2.4-3.7-4.1C33.6,34.2,32.9,32.3,32.6,30.2z M51.9,23.5
		c0.7-0.1,0.9-0.4,0.6-1c-0.7-1.3-1.7-2.1-3.1-2.5c-1.4-0.4-2.8-0.5-4.3-0.4c-1.4,0.3-2.8,0.8-4,1.6c-1.2,0.8-2,1.8-2.4,3.2
		c-0.1,0.2,0,0.4,0.1,0.6c0.2,0.2,0.4,0.2,0.7,0.2L51.9,23.5z"/>
	<path class="st0" d="M70.7,40.7c0,0.4-0.1,0.7-0.4,1s-0.6,0.5-1.1,0.5h-2.6c-0.4,0-0.8-0.2-1.1-0.5c-0.3-0.3-0.4-0.6-0.4-1
		l1.2-39.2c0-0.5,0.1-0.8,0.4-1.1S67.3,0,67.8,0h2.7c0.7,0,1.2,0.3,1.4,1l12.3,29.5c0.1,0.3,0.3,0.6,0.5,0.7s0.4,0.2,0.6,0.2
		s0.4-0.1,0.5-0.2c0.2-0.1,0.3-0.3,0.4-0.4L98.4,1c0.3-0.7,0.8-1,1.5-1h2.6c0.5,0,0.8,0.1,1.1,0.4c0.3,0.3,0.4,0.7,0.4,1.1l1.2,39.2
		c0,0.4-0.1,0.7-0.4,1s-0.6,0.5-1.1,0.5H101c-0.4,0-0.8-0.2-1.1-0.5c-0.3-0.3-0.4-0.6-0.4-1l-0.7-21.4c0-0.7-0.3-1.1-0.7-1.1
		c-0.4,0-0.8,0.3-1.1,1l-9.1,22.1c-0.1,0.3-0.4,0.5-0.7,0.7c-0.3,0.2-0.7,0.2-1.1,0.2h-2c-0.4,0-0.7-0.1-1.1-0.2
		c-0.3-0.2-0.5-0.4-0.7-0.7L73,18.9c-0.2-0.6-0.5-0.8-1-0.6c-0.4,0.2-0.7,0.7-0.8,1.5L70.7,40.7z"/>
	<path class="st0" d="M110.4,30.2c-0.3-1.8-0.2-3.7,0.3-5.5c0.4-1.8,1.2-3.5,2.2-5s2.3-2.7,3.9-3.7s3.3-1.6,5.3-1.9
		c2.3-0.3,4.6-0.1,6.7,0.7c2.1,0.8,3.9,2,5.4,3.7c1.9,2.2,3,4.8,3.5,7.9c0.1,0.5,0,0.8-0.3,1.1c-0.2,0.3-0.6,0.5-0.9,0.5l-19.6,3
		c-0.2,0-0.3,0.1-0.4,0.3c0,0.2,0,0.4,0,0.5c0.7,1.9,2,3.3,3.7,4.1c1.8,0.9,3.7,1.2,5.7,0.9c1.5-0.2,2.8-0.7,3.9-1.5
		c1.1-0.8,2-1.8,2.6-3c0.3-0.5,0.6-0.8,1-0.8s0.8,0.1,1.2,0.4l2.2,1.2c0.4,0.2,0.7,0.6,0.8,1s0,0.8-0.1,1.2c-1,2-2.5,3.6-4.4,4.8
		s-4,2.1-6.5,2.4c-2,0.3-3.9,0.2-5.7-0.3c-1.8-0.5-3.5-1.2-4.9-2.3c-1.5-1.1-2.7-2.4-3.7-4.1C111.4,34.2,110.7,32.3,110.4,30.2z
		 M129.7,23.5c0.7-0.1,0.9-0.4,0.6-1c-0.7-1.3-1.7-2.1-3.1-2.5s-2.8-0.5-4.3-0.4c-1.4,0.3-2.8,0.8-4,1.6c-1.2,0.8-2,1.8-2.4,3.2
		c-0.1,0.2,0,0.4,0.1,0.6s0.4,0.2,0.7,0.2L129.7,23.5z"/>
	<path class="st0" d="M168.9,0c0.4,0,0.8,0.1,1.1,0.4s0.4,0.7,0.4,1.1v39.2c0,0.4-0.1,0.7-0.4,1c-0.3,0.3-0.6,0.5-1.1,0.5h-2.7
		c-0.4,0-0.8-0.2-1.1-0.5s-0.4-0.6-0.4-1v-0.1c0-0.3-0.3-0.3-0.7-0.1c-2.3,1.5-5,2.3-8.1,2.3c-2,0-3.9-0.4-5.6-1.1
		c-1.8-0.7-3.3-1.7-4.6-3s-2.4-2.8-3.1-4.6c-0.8-1.8-1.2-3.8-1.2-5.9s0.4-4.1,1.2-5.8c0.8-1.8,1.8-3.3,3.1-4.6
		c1.3-1.3,2.8-2.3,4.6-3s3.6-1.1,5.6-1.1c2.9,0,5.5,0.7,7.9,2.2c0.3,0.2,0.6,0.3,0.7,0.2c0.2-0.1,0.2-0.3,0.2-0.8V1.5
		c0-0.5,0.1-0.8,0.4-1.1c0.3-0.3,0.6-0.4,1.1-0.4C166.2,0,168.9,0,168.9,0z M147.7,32c0.5,1.1,1.1,2,1.9,2.8
		c0.8,0.8,1.7,1.3,2.8,1.7s2.2,0.6,3.4,0.6c2.5,0,4.6-0.8,6.3-2.4c1.7-1.6,2.5-3.7,2.5-6.5c0-1.3-0.2-2.5-0.7-3.6s-1.1-2-1.8-2.7
		c-0.8-0.7-1.7-1.3-2.8-1.7c-1.1-0.4-2.2-0.6-3.5-0.6c-1.2,0-2.3,0.2-3.4,0.6c-1.1,0.4-2,1-2.8,1.7s-1.4,1.6-1.9,2.7
		s-0.7,2.3-0.7,3.6C147,29.6,147.2,30.9,147.7,32z"/>
	<path class="st0" d="M176.9,8.6c0-0.8,0.3-1.5,0.8-2c0.6-0.5,1.2-0.8,2-0.8s1.5,0.3,2,0.8s0.8,1.2,0.8,2s-0.3,1.4-0.8,2
		s-1.2,0.8-2,0.8s-1.4-0.3-2-0.8S176.9,9.4,176.9,8.6z M181.1,14.5c0.4,0,0.8,0.1,1.1,0.4c0.3,0.3,0.4,0.7,0.4,1.1v24.7
		c0,0.4-0.1,0.7-0.4,1c-0.3,0.3-0.6,0.5-1.1,0.5h-2.7c-0.4,0-0.8-0.2-1.1-0.5s-0.4-0.6-0.4-1V16c0-0.5,0.1-0.8,0.4-1.1
		c0.3-0.3,0.6-0.4,1.1-0.4H181.1z"/>
	<path class="st0" d="M215.4,14.5c0.4,0,0.8,0.1,1.1,0.4c0.3,0.3,0.4,0.7,0.4,1.1v24.7c0,0.4-0.1,0.7-0.4,1
		c-0.3,0.3-0.6,0.5-1.1,0.5h-2.6c-0.4,0-0.8-0.2-1.1-0.5s-0.4-0.6-0.4-1v-0.1c0-0.3-0.3-0.4-0.9-0.1c-1.2,0.6-2.5,1.2-3.8,1.6
		c-1.3,0.4-2.7,0.6-4.1,0.6c-2,0-3.9-0.4-5.6-1.1c-1.8-0.7-3.3-1.7-4.6-3s-2.4-2.8-3.1-4.6c-0.8-1.8-1.2-3.8-1.2-5.9
		s0.4-4.1,1.2-5.8c0.8-1.8,1.8-3.3,3.1-4.6c1.3-1.3,2.8-2.3,4.6-3s3.6-1.1,5.6-1.1c1.1,0,2.1,0.1,3.1,0.4c1,0.2,2,0.5,2.9,0.9
		c0.9,0.3,1.5,0.7,2,1c0.5,0.3,0.7,0.3,0.8,0V16c0-0.5,0.1-0.8,0.4-1.1c0.3-0.3,0.6-0.4,1.1-0.4H215.4z M193.5,28.3
		c0,1.4,0.2,2.6,0.7,3.7c0.5,1.1,1.1,2,1.9,2.8c0.8,0.8,1.8,1.3,2.8,1.7c1.1,0.4,2.2,0.6,3.4,0.6s2.3-0.2,3.4-0.6
		c1.1-0.4,2-1,2.8-1.7c0.8-0.8,1.4-1.7,1.9-2.8c0.5-1.1,0.7-2.3,0.7-3.7c0-1.3-0.2-2.5-0.7-3.6s-1.1-2-1.9-2.7
		c-0.8-0.7-1.7-1.3-2.8-1.7c-1.1-0.4-2.2-0.6-3.4-0.6s-2.3,0.2-3.4,0.6c-1.1,0.4-2,1-2.8,1.7s-1.5,1.6-1.9,2.7
		C193.7,25.7,193.5,26.9,193.5,28.3z"/>
</g>
<g>
	<path class="st0" d="M171.4,59.8c0-0.1-0.1-0.1-0.3,0c-0.4,0.2-0.8,0.4-1.3,0.6c-0.5,0.2-1,0.2-1.5,0.2c-0.7,0-1.4-0.1-2-0.4
		c-0.6-0.3-1.2-0.6-1.7-1.1s-0.8-1-1.1-1.6s-0.4-1.3-0.4-2.1s0.1-1.5,0.4-2.1c0.3-0.6,0.7-1.2,1.1-1.6c0.5-0.5,1-0.8,1.7-1.1
		s1.3-0.4,2-0.4c0.5,0,0.9,0.1,1.4,0.2s0.9,0.3,1.3,0.5c0.2,0.1,0.3,0.1,0.4,0.2c0.1,0,0.1,0,0.2-0.1l0,0c0-0.1,0.1-0.3,0.2-0.4
		s0.2-0.2,0.4-0.2h1c0.2,0,0.3,0.1,0.4,0.2s0.2,0.2,0.2,0.4v9.7c0,0.8-0.1,1.5-0.4,2.1c-0.3,0.6-0.7,1.2-1.1,1.6
		c-0.5,0.5-1,0.8-1.6,1.1c-0.6,0.3-1.3,0.4-2,0.4c-0.9,0-1.7-0.2-2.4-0.5c-0.7-0.4-1.3-0.9-1.8-1.5c-0.1-0.1-0.1-0.3-0.1-0.4
		c0-0.1,0.1-0.3,0.2-0.4l0.7-0.6c0.1-0.1,0.3-0.2,0.4-0.2c0.2,0,0.3,0.1,0.4,0.2c0.3,0.4,0.7,0.7,1.1,0.9c0.4,0.2,0.9,0.3,1.5,0.3
		c0.4,0,0.8-0.1,1.2-0.2c0.4-0.1,0.7-0.4,1-0.6c0.3-0.3,0.5-0.6,0.7-1s0.3-0.8,0.3-1.3v-0.8H171.4z M165,55.4c0,0.5,0.1,0.9,0.3,1.3
		c0.2,0.4,0.4,0.7,0.7,1s0.6,0.5,1,0.6s0.8,0.2,1.2,0.2s0.8-0.1,1.2-0.2c0.4-0.1,0.7-0.4,1-0.6s0.5-0.6,0.7-1s0.2-0.8,0.2-1.3
		s-0.1-0.9-0.2-1.3c-0.2-0.4-0.4-0.7-0.7-1s-0.6-0.5-1-0.6s-0.8-0.2-1.2-0.2s-0.8,0.1-1.2,0.2c-0.4,0.1-0.7,0.4-1,0.6
		c-0.3,0.3-0.5,0.6-0.7,1C165.1,54.4,165,54.9,165,55.4z"/>
	<path class="st0" d="M181.2,52.4c-0.5,0-0.9,0.1-1.4,0.2c-0.4,0.1-0.8,0.3-1.1,0.6s-0.6,0.6-0.8,1s-0.3,0.9-0.3,1.4v4.2
		c0,0.1-0.1,0.3-0.2,0.4s-0.2,0.2-0.4,0.2h-1c-0.2,0-0.3-0.1-0.4-0.2s-0.2-0.2-0.2-0.4V51c0-0.2,0-0.3,0.2-0.4s0.2-0.2,0.4-0.2h1
		c0.2,0,0.3,0,0.4,0.2s0.2,0.2,0.2,0.4v0.2c0,0.1,0,0.2,0.1,0.2c0,0,0.1,0,0.2,0c0.1,0,0.2-0.1,0.3-0.2c0.1-0.1,0.2-0.1,0.4-0.2
		c0.4-0.2,0.9-0.3,1.3-0.4c0.4-0.1,0.9-0.2,1.4-0.2c0.1,0,0.3,0,0.4,0.2c0.1,0.1,0.2,0.2,0.2,0.4v1c0,0.2-0.1,0.3-0.2,0.4
		C181.5,52.4,181.3,52.4,181.2,52.4z"/>
	<path class="st0" d="M182.4,55.4c0-0.8,0.1-1.5,0.4-2.1c0.3-0.6,0.7-1.2,1.1-1.6c0.5-0.5,1-0.8,1.7-1.1s1.3-0.4,2-0.4
		s1.4,0.1,2,0.4c0.6,0.3,1.2,0.6,1.7,1.1s0.8,1,1.1,1.6s0.4,1.3,0.4,2.1s-0.1,1.5-0.4,2.1c-0.3,0.6-0.6,1.2-1.1,1.6
		c-0.5,0.5-1,0.8-1.7,1.1c-0.6,0.3-1.3,0.4-2,0.4s-1.4-0.1-2-0.4c-0.6-0.3-1.2-0.6-1.7-1.1s-0.8-1-1.1-1.6
		C182.5,56.8,182.4,56.1,182.4,55.4z M184.4,55.4c0,0.5,0.1,0.9,0.3,1.3c0.2,0.4,0.4,0.7,0.7,1s0.6,0.5,1,0.6s0.8,0.2,1.2,0.2
		s0.8-0.1,1.2-0.2c0.4-0.1,0.7-0.4,1-0.6s0.5-0.6,0.7-1s0.2-0.8,0.2-1.3s-0.1-0.9-0.2-1.3c-0.2-0.4-0.4-0.7-0.7-1s-0.6-0.5-1-0.6
		s-0.8-0.2-1.2-0.2s-0.8,0.1-1.2,0.2c-0.4,0.1-0.7,0.4-1,0.6c-0.3,0.3-0.5,0.6-0.7,1C184.5,54.4,184.4,54.9,184.4,55.4z"/>
	<path class="st0" d="M196.3,55.4c0,1,0.3,1.7,0.8,2.3s1.3,0.8,2.2,0.8c0.8,0,1.5-0.3,2.1-0.8s0.9-1.3,0.9-2.2v-4.6
		c0-0.1,0.1-0.3,0.2-0.4s0.2-0.2,0.4-0.2h1c0.2,0,0.3,0.1,0.4,0.2s0.2,0.2,0.2,0.4v8.9c0,0.2-0.1,0.3-0.2,0.4s-0.2,0.2-0.4,0.2h-1
		c-0.1,0-0.3,0-0.4-0.1c-0.1-0.1-0.2-0.2-0.2-0.4c0-0.1,0-0.1-0.1-0.1h-0.1c-0.8,0.5-1.8,0.8-2.8,0.8c-0.7,0-1.4-0.1-2-0.4
		c-0.6-0.3-1.1-0.6-1.6-1.1s-0.8-1-1-1.6s-0.4-1.3-0.4-2.1v-4.5c0-0.1,0-0.3,0.2-0.4c0.1-0.1,0.2-0.2,0.4-0.2h1
		c0.2,0,0.3,0.1,0.4,0.2c0.1,0.1,0.2,0.2,0.2,0.4v4.5H196.3z"/>
	<path class="st0" d="M207,65.6c-0.2,0-0.3-0.1-0.4-0.2s-0.2-0.2-0.2-0.4V50.9c0-0.1,0-0.3,0.2-0.4s0.2-0.2,0.4-0.2h1
		c0.2,0,0.3,0.1,0.4,0.2s0.2,0.2,0.2,0.4l0,0c0,0.1,0.1,0.1,0.3,0c0.8-0.6,1.8-0.8,2.9-0.8c0.7,0,1.4,0.1,2,0.4
		c0.6,0.3,1.2,0.6,1.7,1.1s0.8,1,1.1,1.6s0.4,1.3,0.4,2.1s-0.1,1.5-0.4,2.1c-0.3,0.6-0.7,1.2-1.1,1.6c-0.5,0.5-1,0.8-1.7,1.1
		c-0.6,0.3-1.3,0.4-2,0.4c-1.1,0-2-0.3-2.8-0.8c-0.1-0.1-0.2-0.1-0.3-0.1s-0.1,0.1-0.1,0.3v5c0,0.2-0.1,0.3-0.2,0.4
		s-0.2,0.2-0.4,0.2h-1V65.6z M214.6,54.1c-0.2-0.4-0.4-0.7-0.7-1s-0.6-0.5-1-0.6s-0.8-0.2-1.2-0.2c-0.9,0-1.6,0.3-2.3,0.8
		c-0.6,0.6-0.9,1.3-0.9,2.3c0,0.5,0.1,0.9,0.2,1.3c0.2,0.4,0.4,0.7,0.7,1s0.6,0.5,1,0.6s0.8,0.2,1.3,0.2c0.4,0,0.8-0.1,1.2-0.2
		c0.4-0.1,0.7-0.4,1-0.6s0.5-0.6,0.7-1s0.3-0.8,0.3-1.3C214.8,54.9,214.7,54.5,214.6,54.1z"/>
</g>
</svg>
